<svg id="svg" version="1.1" width="400" height="421.13402061855675" viewBox="0 0 400 421.13402061855675" xmlns="http://www.w3.org/2000/svg" xmlns:xlink="http://www.w3.org/1999/xlink" ><g id="svgg"><path id="path0" d="M195.600 37.152 C 193.736 37.543,192.327 38.513,190.697 40.531 C 183.124 49.903,182.883 56.773,189.762 67.200 C 191.691 70.124,192.800 71.556,196.308 75.651 L 198.016 77.645 197.908 85.723 L 197.800 93.800 188.200 94.053 C 176.628 94.358,176.046 94.417,167.400 96.170 C 136.563 102.422,115.758 123.649,110.720 154.000 C 110.097 157.750,109.862 173.448,110.372 177.200 C 112.922 195.954,121.413 208.645,137.800 218.193 C 148.202 224.254,165.753 231.344,179.400 234.999 C 181.600 235.588,183.813 236.234,184.319 236.435 C 184.824 236.636,185.643 236.800,186.139 236.800 C 186.634 236.800,187.211 236.963,187.420 237.161 C 187.629 237.360,188.610 237.605,189.600 237.706 C 192.086 237.958,196.052 238.799,196.901 239.254 C 197.565 239.609,197.599 241.284,197.503 268.515 L 197.400 297.400 192.800 297.532 C 165.763 298.305,140.509 283.463,127.172 258.963 C 122.893 251.101,117.308 238.119,116.176 233.400 C 115.452 230.386,114.967 229.950,112.480 230.081 L 110.200 230.200 110.098 268.919 L 109.996 307.638 112.471 307.519 L 114.946 307.400 117.264 304.000 C 125.945 291.269,133.878 288.496,143.600 294.796 C 147.015 297.009,164.896 303.069,172.000 304.422 C 172.990 304.611,174.880 304.973,176.200 305.228 C 180.069 305.974,182.992 306.311,190.000 306.818 C 193.630 307.081,196.845 307.493,197.145 307.734 C 197.600 308.100,197.656 313.745,197.486 341.986 C 197.362 362.423,197.419 374.138,197.629 371.600 C 198.091 366.008,199.089 343.641,199.933 319.929 C 200.433 305.898,199.804 307.350,205.512 307.038 C 214.107 306.568,218.495 306.007,227.200 304.266 C 254.681 298.769,275.456 280.021,281.126 255.600 C 281.356 254.610,281.732 252.990,281.962 252.000 C 283.457 245.557,283.991 227.329,282.875 220.800 C 281.847 214.786,280.475 209.356,279.374 206.940 C 279.058 206.246,278.800 205.518,278.800 205.321 C 278.800 204.662,275.238 198.031,273.309 195.099 C 266.431 184.646,252.253 175.336,230.200 166.793 C 228.609 166.176,224.515 164.847,220.400 163.610 C 218.090 162.916,215.750 162.196,215.200 162.009 C 214.650 161.822,212.617 161.250,210.683 160.738 C 206.576 159.650,206.538 159.589,206.968 154.854 C 207.121 153.174,207.422 147.390,207.638 142.000 C 208.914 110.170,209.209 105.172,209.822 104.936 C 211.144 104.429,221.830 108.480,227.000 111.449 C 240.195 119.025,250.386 130.434,258.399 146.600 C 259.817 149.460,261.072 151.890,261.189 152.000 C 261.662 152.448,262.400 154.028,262.400 154.595 C 262.400 154.928,262.560 155.200,262.757 155.200 C 262.953 155.200,263.392 155.897,263.733 156.748 C 264.449 158.538,264.946 158.800,267.625 158.800 C 270.230 158.800,270.036 161.643,269.910 125.200 L 269.800 93.400 267.383 93.283 L 264.966 93.166 264.015 94.883 C 258.140 105.485,252.832 108.743,244.877 106.626 C 242.305 105.941,241.766 105.529,241.463 104.017 L 241.230 102.852 237.115 102.705 C 233.472 102.576,232.450 102.360,228.200 100.827 C 225.560 99.874,222.860 98.951,222.200 98.775 C 221.540 98.599,219.560 98.068,217.800 97.594 C 216.040 97.120,213.712 96.574,212.627 96.379 C 209.658 95.847,209.732 96.150,210.028 85.781 C 210.266 77.450,210.377 76.370,211.179 74.581 C 217.388 60.730,213.949 44.846,203.506 39.149 C 202.953 38.847,201.957 38.290,201.292 37.911 C 199.817 37.071,197.476 36.758,195.600 37.152 M201.431 42.818 C 204.543 44.599,207.723 47.829,208.302 49.800 C 208.561 50.680,209.499 52.828,210.386 54.574 C 212.238 58.216,212.395 59.808,211.258 63.434 C 210.850 64.735,210.215 66.781,209.847 67.981 C 208.817 71.337,208.435 71.600,204.597 71.600 L 201.318 71.600 197.741 67.900 C 192.105 62.069,191.120 59.306,192.584 53.427 C 193.080 51.432,193.704 48.182,193.969 46.203 C 194.689 40.828,196.509 40.002,201.431 42.818 M197.520 103.280 C 198.275 104.035,198.207 156.130,197.450 156.758 C 196.887 157.226,187.665 155.340,182.000 153.600 C 181.450 153.431,180.190 153.068,179.200 152.793 C 176.450 152.029,172.747 150.798,171.300 150.167 C 170.585 149.855,169.325 149.308,168.500 148.952 C 160.376 145.442,158.559 144.224,154.599 139.631 C 143.880 127.199,151.740 110.589,170.875 105.238 C 178.056 103.230,196.141 101.901,197.520 103.280 M214.000 193.600 L 214.000 200.800 215.767 200.800 C 217.723 200.800,218.800 201.099,218.800 201.643 C 218.800 201.839,216.280 202.000,213.200 202.000 C 210.120 202.000,207.600 201.839,207.600 201.643 C 207.600 201.099,208.677 200.800,210.633 200.800 L 212.400 200.800 212.400 194.200 L 212.400 187.600 211.233 187.600 C 209.827 187.600,208.800 187.244,208.800 186.757 C 208.800 186.561,209.970 186.400,211.400 186.400 L 214.000 186.400 214.000 193.600 M233.200 187.600 C 233.200 188.613,233.044 188.800,232.200 188.800 C 231.356 188.800,231.200 188.613,231.200 187.600 C 231.200 186.587,231.356 186.400,232.200 186.400 C 233.044 186.400,233.200 186.587,233.200 187.600 M152.877 188.900 L 153.000 190.600 156.000 190.800 C 157.650 190.910,159.000 191.180,159.000 191.400 C 159.000 191.620,157.650 191.890,156.000 192.000 L 153.000 192.200 152.883 195.544 C 152.707 200.575,153.075 200.978,157.543 200.647 L 161.000 200.391 160.056 201.195 C 158.590 202.445,154.051 202.349,152.526 201.037 C 151.475 200.134,151.394 199.834,151.203 196.154 C 151.012 192.465,150.945 192.220,150.076 192.017 C 148.775 191.712,148.790 191.024,150.100 190.873 C 151.083 190.760,151.200 190.586,151.200 189.240 C 151.200 186.569,152.687 186.268,152.877 188.900 M140.100 191.465 C 140.591 191.764,140.440 193.469,139.881 193.933 C 139.491 194.256,139.085 194.069,138.247 193.182 C 136.479 191.308,132.400 191.775,132.400 193.850 C 132.400 195.010,133.479 195.600,135.600 195.600 C 139.783 195.600,142.005 198.553,139.549 200.848 C 138.316 201.999,138.233 202.016,134.130 201.935 L 129.962 201.853 130.081 200.058 C 130.217 198.005,130.974 197.465,131.646 198.942 C 132.516 200.852,136.950 201.628,138.446 200.132 C 140.092 198.485,138.393 196.801,135.081 196.799 C 130.672 196.795,129.097 192.798,132.875 191.202 C 133.729 190.841,139.414 191.048,140.100 191.465 M171.113 195.462 C 171.234 200.272,171.399 200.659,173.400 200.820 C 176.637 201.081,177.665 199.763,177.517 195.539 C 177.400 192.209,177.397 192.200,176.276 192.071 C 174.483 191.866,175.257 191.000,177.233 191.000 L 179.000 191.000 179.112 195.856 C 179.214 200.302,179.291 200.730,180.012 200.919 C 180.445 201.032,180.800 201.322,180.800 201.563 C 180.800 202.132,177.892 202.132,177.323 201.563 C 177.007 201.247,176.660 201.247,176.069 201.563 C 172.176 203.646,169.687 201.518,169.516 195.960 C 169.406 192.406,169.351 192.193,168.500 192.072 C 166.630 191.807,167.624 190.716,169.586 190.881 L 171.000 191.000 171.113 195.462 M192.217 191.227 C 192.362 191.462,192.103 191.753,191.640 191.874 C 190.485 192.176,190.556 192.526,192.534 196.322 C 194.514 200.119,194.409 200.138,196.555 195.595 C 197.954 192.632,197.961 192.594,197.167 191.985 C 196.102 191.169,196.562 190.800,198.643 190.800 C 200.516 190.800,201.230 191.386,200.259 192.127 C 199.917 192.387,198.842 194.310,197.870 196.400 C 196.898 198.490,195.630 201.179,195.052 202.375 C 193.781 205.003,193.753 205.442,194.840 205.726 C 196.748 206.225,194.984 206.800,191.543 206.800 C 187.727 206.800,186.485 205.931,189.937 205.677 C 191.773 205.542,192.599 204.706,193.031 202.546 C 193.290 201.249,189.590 193.153,188.217 192.014 C 187.698 191.583,187.670 191.402,188.081 191.141 C 188.836 190.663,191.907 190.726,192.217 191.227 M232.967 191.043 C 233.495 191.245,233.600 192.074,233.600 196.043 L 233.600 200.800 235.167 200.800 C 236.939 200.800,238.000 201.116,238.000 201.643 C 238.000 201.839,235.555 202.000,232.567 202.000 C 228.399 202.000,227.172 201.884,227.298 201.500 C 227.394 201.209,228.326 200.950,229.531 200.879 L 231.600 200.758 231.600 196.379 L 231.600 192.000 230.024 192.000 C 228.449 192.000,227.548 191.449,228.498 191.066 C 229.223 190.773,232.225 190.758,232.967 191.043 M248.709 191.269 C 249.068 191.628,249.420 191.628,250.208 191.269 C 254.301 189.404,256.800 191.625,256.800 197.127 C 256.800 200.370,256.875 200.726,257.600 200.916 C 259.234 201.343,258.385 202.000,256.200 202.000 C 254.096 202.000,253.325 201.545,254.600 201.055 C 255.693 200.636,255.446 193.418,254.311 192.623 C 252.949 191.669,251.435 191.860,250.042 193.160 C 248.286 194.801,248.108 200.540,249.800 200.964 C 251.678 201.436,250.806 202.000,248.200 202.000 C 245.665 202.000,244.632 201.378,246.400 200.916 C 247.465 200.637,247.659 192.000,246.600 192.000 C 245.975 192.000,245.806 191.527,246.267 191.067 C 246.697 190.636,248.201 190.761,248.709 191.269 M206.800 241.669 C 218.070 244.748,231.160 250.251,236.311 254.075 C 247.688 262.523,246.377 281.537,233.838 289.923 C 226.893 294.568,213.970 297.909,204.400 297.533 L 201.000 297.400 201.055 295.200 C 201.085 293.990,201.395 285.980,201.744 277.400 C 203.249 240.362,203.246 240.401,204.764 241.025 C 205.114 241.169,206.030 241.459,206.800 241.669 " stroke="none" fill="#c49d6d" fill-rule="evenodd"></path><path id="path1" d="M0.000 210.400 L 0.000 420.800 200.000 420.800 L 400.000 420.800 400.000 210.400 L 400.000 0.000 200.000 0.000 L 0.000 0.000 0.000 210.400 M200.600 36.824 C 201.480 37.268,202.834 37.966,203.609 38.376 C 214.195 43.971,218.176 60.575,212.195 74.185 C 211.283 76.261,211.115 77.837,210.549 89.605 L 210.289 95.010 212.844 95.532 C 214.250 95.819,215.713 96.221,216.095 96.427 C 216.477 96.632,217.184 96.800,217.666 96.800 C 218.472 96.800,220.195 97.260,222.200 98.010 C 222.640 98.175,224.440 98.769,226.200 99.331 C 227.960 99.893,230.431 100.723,231.690 101.176 C 233.307 101.758,234.956 102.000,237.301 102.000 C 241.011 102.000,242.400 102.597,242.400 104.192 C 242.400 105.532,244.502 106.138,249.200 106.152 C 254.713 106.169,256.710 104.780,261.207 97.800 C 264.950 91.989,267.617 90.443,270.069 92.662 C 271.147 93.638,271.215 157.679,270.138 158.869 C 268.461 160.721,264.141 159.685,263.184 157.200 C 262.888 156.430,262.538 155.710,262.406 155.600 C 262.274 155.490,260.751 152.547,259.021 149.061 C 250.528 131.941,239.385 119.123,227.200 112.454 C 225.041 111.273,219.212 108.400,218.974 108.400 C 218.835 108.400,218.154 108.147,217.460 107.838 C 215.412 106.924,210.337 105.530,210.061 105.806 C 209.920 105.946,209.673 109.512,209.511 113.730 C 209.348 117.949,209.033 125.810,208.811 131.200 C 207.575 161.093,207.561 159.600,209.065 159.600 C 209.377 159.600,210.840 159.968,212.316 160.418 C 213.792 160.868,215.720 161.432,216.600 161.672 C 217.480 161.911,219.190 162.419,220.400 162.800 C 221.610 163.181,223.410 163.728,224.400 164.016 C 225.390 164.304,226.371 164.688,226.580 164.870 C 226.789 165.051,227.286 165.200,227.684 165.200 C 228.083 165.200,229.172 165.544,230.104 165.965 C 231.037 166.386,232.472 166.939,233.294 167.194 C 234.116 167.450,234.892 167.825,235.018 168.029 C 235.144 168.233,235.506 168.400,235.821 168.400 C 237.703 168.400,258.569 179.230,259.133 180.500 C 259.207 180.665,259.430 180.800,259.629 180.800 C 260.909 180.800,268.752 187.919,271.968 192.000 C 276.586 197.858,280.496 206.161,282.330 214.000 C 282.561 214.990,282.858 216.250,282.989 216.800 C 285.283 226.432,284.671 245.082,281.689 256.400 C 281.138 258.490,280.601 260.608,280.496 261.106 C 280.391 261.604,280.146 262.110,279.952 262.230 C 279.759 262.349,279.600 262.709,279.600 263.028 C 279.600 263.541,278.984 265.088,277.460 268.400 C 276.582 270.309,273.836 275.001,273.519 275.133 C 273.343 275.207,273.200 275.461,273.200 275.698 C 273.200 277.118,263.091 288.400,261.819 288.400 C 261.529 288.400,261.020 288.815,260.688 289.322 C 258.745 292.287,239.889 302.400,236.304 302.400 C 235.943 302.400,235.555 302.549,235.442 302.732 C 235.330 302.914,234.194 303.293,232.919 303.574 C 231.643 303.856,230.150 304.233,229.600 304.413 C 228.655 304.723,226.878 305.113,222.500 305.973 C 218.207 306.816,207.100 308.006,203.560 308.002 L 201.319 308.000 201.043 313.700 C 200.891 316.835,200.589 323.000,200.372 327.400 C 200.155 331.800,199.804 339.990,199.592 345.600 C 199.380 351.210,199.009 359.940,198.766 365.000 C 198.524 370.060,198.207 376.706,198.063 379.768 C 197.787 385.612,197.152 387.342,196.610 383.727 C 196.453 382.678,196.457 365.210,196.619 344.910 L 196.914 308.000 194.202 308.000 C 191.614 308.000,188.028 307.663,181.000 306.758 C 177.683 306.331,176.140 306.044,171.400 304.974 C 169.860 304.626,168.150 304.249,167.600 304.135 C 161.316 302.839,150.295 298.781,142.053 294.730 C 131.814 289.697,124.730 293.039,116.254 306.900 C 115.505 308.125,110.344 308.584,109.280 307.520 C 108.584 306.824,108.584 230.776,109.280 230.080 C 109.564 229.796,110.932 229.600,112.634 229.600 L 115.507 229.600 116.307 231.700 C 116.746 232.855,117.782 235.690,118.608 238.000 C 126.957 261.348,138.575 277.467,153.200 285.997 C 157.622 288.576,164.349 291.782,166.200 292.195 C 166.860 292.341,167.940 292.697,168.600 292.984 C 172.650 294.747,187.819 297.200,194.669 297.200 L 196.800 297.200 196.800 268.442 L 196.800 239.684 195.300 239.475 C 194.475 239.359,192.990 239.068,192.000 238.828 C 191.010 238.587,189.210 238.219,188.000 238.008 C 186.790 237.798,184.450 237.244,182.800 236.777 C 179.370 235.806,177.747 235.351,175.900 234.842 C 171.931 233.748,160.833 229.878,156.600 228.112 C 155.280 227.561,153.840 226.972,153.400 226.802 C 150.962 225.860,137.600 219.056,137.600 218.756 C 137.600 218.560,137.370 218.400,137.088 218.400 C 135.143 218.400,125.948 211.021,121.389 205.800 C 118.305 202.269,112.800 192.480,112.800 190.528 C 112.800 190.106,112.641 189.589,112.447 189.380 C 111.239 188.080,109.408 177.382,108.993 169.200 C 108.560 160.679,111.811 141.001,114.044 138.620 C 114.240 138.411,114.400 137.984,114.400 137.672 C 114.400 132.988,125.637 117.733,134.231 110.750 C 142.036 104.409,157.152 96.800,161.947 96.800 C 162.390 96.800,162.849 96.644,162.967 96.454 C 163.084 96.264,163.860 95.994,164.690 95.856 C 165.521 95.717,167.100 95.426,168.200 95.208 C 174.554 93.952,178.319 93.584,187.300 93.341 L 197.200 93.073 197.200 85.432 C 197.200 78.072,197.167 77.755,196.300 76.792 C 195.805 76.242,194.536 74.713,193.479 73.396 C 192.422 72.078,191.334 70.726,191.061 70.391 C 184.671 62.564,182.395 53.855,185.227 48.068 C 190.123 38.064,195.402 34.203,200.600 36.824 M196.000 42.348 C 195.109 42.602,194.969 42.913,194.718 45.216 C 194.115 50.751,193.329 54.673,192.752 55.030 C 191.492 55.808,192.928 60.890,195.343 64.200 C 198.455 68.465,202.019 71.199,204.467 71.200 C 208.001 71.200,208.376 70.849,209.591 66.400 C 209.861 65.410,210.240 64.407,210.432 64.170 C 211.766 62.530,211.328 58.157,209.452 54.376 C 208.434 52.323,207.600 50.396,207.600 50.094 C 207.600 49.402,205.283 46.000,204.811 46.000 C 204.619 46.000,203.949 45.568,203.322 45.041 C 200.840 42.953,197.803 41.836,196.000 42.348 M181.200 104.048 C 179.990 104.243,177.740 104.604,176.200 104.850 C 160.438 107.377,151.000 115.973,151.000 127.800 C 151.000 137.345,155.760 142.725,169.400 148.598 C 170.280 148.977,171.523 149.538,172.161 149.844 C 172.800 150.150,173.645 150.400,174.038 150.400 C 174.431 150.400,174.864 150.580,175.000 150.800 C 175.136 151.020,175.676 151.200,176.200 151.200 C 176.724 151.200,177.264 151.380,177.400 151.600 C 177.536 151.820,178.042 152.003,178.524 152.006 C 179.006 152.009,180.210 152.303,181.200 152.659 C 183.302 153.415,185.325 153.903,188.449 154.410 C 189.686 154.611,191.486 155.030,192.449 155.343 C 193.412 155.655,194.756 156.010,195.435 156.132 L 196.670 156.354 196.935 136.877 C 197.080 126.165,197.199 114.295,197.200 110.500 L 197.200 103.600 190.300 103.648 C 186.505 103.674,182.410 103.854,181.200 104.048 M151.421 191.188 C 150.669 191.456,150.670 191.473,151.477 191.684 C 152.465 191.942,153.586 191.431,152.734 191.111 C 152.440 191.001,151.850 191.036,151.421 191.188 M178.324 195.900 C 178.254 198.265,178.321 200.560,178.473 201.000 C 178.625 201.440,178.761 199.505,178.775 196.700 C 178.805 190.496,178.500 189.954,178.324 195.900 M130.800 200.200 C 130.800 200.530,131.092 200.800,131.449 200.800 C 131.980 200.800,132.008 200.691,131.600 200.200 C 131.326 199.870,131.034 199.600,130.951 199.600 C 130.868 199.600,130.800 199.870,130.800 200.200 M194.267 200.667 C 194.120 200.813,194.011 201.308,194.025 201.767 C 194.049 202.533,194.082 202.523,194.434 201.642 C 194.826 200.663,194.744 200.189,194.267 200.667 M191.964 206.031 C 191.553 206.291,191.699 206.389,192.500 206.394 C 193.694 206.401,193.910 206.204,193.064 205.880 C 192.769 205.767,192.274 205.835,191.964 206.031 M204.189 242.151 C 204.109 242.398,203.763 249.350,203.420 257.600 C 202.514 279.454,202.023 290.191,201.769 293.702 C 201.493 297.513,201.284 297.399,207.466 296.804 C 217.672 295.821,226.852 293.550,230.462 291.116 C 231.046 290.722,231.622 290.400,231.742 290.400 C 231.862 290.400,232.762 289.859,233.743 289.197 C 245.207 281.460,246.677 263.033,236.457 255.176 C 234.918 253.994,228.981 250.400,228.566 250.400 C 228.488 250.400,227.473 249.966,226.312 249.435 C 218.616 245.918,204.479 241.263,204.189 242.151 " stroke="none" fill="#fbfbfb" fill-rule="evenodd"></path><path id="path2" d="M196.000 36.768 C 195.339 36.959,195.836 37.048,197.469 37.033 C 198.827 37.019,199.727 36.874,199.469 36.710 C 198.902 36.350,197.361 36.376,196.000 36.768 M192.307 38.416 C 191.495 39.085,190.448 40.210,189.978 40.916 C 189.334 41.886,189.501 41.782,190.663 40.488 C 191.508 39.547,192.740 38.423,193.400 37.991 C 194.060 37.559,194.416 37.204,194.191 37.203 C 193.966 37.201,193.118 37.747,192.307 38.416 M201.762 38.200 C 202.572 38.750,203.399 39.200,203.598 39.200 C 204.381 39.200,209.606 44.823,210.816 46.967 C 211.521 48.215,212.178 49.155,212.278 49.055 C 213.030 48.304,204.940 38.800,203.548 38.800 C 203.316 38.800,202.669 38.440,202.109 38.000 C 201.550 37.560,200.911 37.200,200.690 37.200 C 200.469 37.200,200.951 37.650,201.762 38.200 M194.973 42.031 C 194.658 42.379,194.400 42.824,194.400 43.020 C 194.400 43.217,194.682 42.975,195.027 42.482 C 195.372 41.990,195.806 41.680,195.990 41.794 C 196.175 41.908,196.748 41.835,197.263 41.631 C 198.108 41.296,198.069 41.267,196.873 41.330 C 196.144 41.368,195.289 41.684,194.973 42.031 M199.522 42.206 C 203.102 43.761,207.113 47.351,207.783 49.600 C 208.223 51.078,210.081 54.853,210.273 54.660 C 210.364 54.569,210.082 53.859,209.646 53.082 C 209.210 52.306,208.623 50.890,208.342 49.935 C 207.532 47.182,201.040 41.551,198.751 41.616 C 198.448 41.624,198.795 41.890,199.522 42.206 M188.308 43.300 C 187.433 44.649,186.648 46.256,187.087 45.800 C 187.648 45.217,189.298 42.400,189.079 42.400 C 188.976 42.400,188.629 42.805,188.308 43.300 M193.818 47.000 C 193.658 48.540,193.281 50.782,192.980 51.983 C 192.679 53.184,192.502 54.235,192.587 54.320 C 193.061 54.795,194.665 45.755,194.292 44.713 C 194.191 44.431,193.978 45.460,193.818 47.000 M185.781 47.637 C 185.429 48.318,185.212 48.945,185.299 49.032 C 185.386 49.119,185.756 48.562,186.122 47.795 C 186.944 46.070,186.659 45.938,185.781 47.637 M184.643 50.233 C 183.679 52.745,184.750 58.966,186.778 62.629 C 187.812 64.497,187.641 63.916,186.123 60.400 C 185.135 58.112,185.000 57.308,185.000 53.700 C 185.000 49.272,185.002 49.296,184.643 50.233 M212.433 49.600 C 212.415 49.710,212.752 50.700,213.182 51.800 C 213.611 52.900,213.966 53.530,213.971 53.200 C 213.979 52.633,212.501 49.175,212.433 49.600 M214.303 56.800 C 214.417 58.450,214.576 59.875,214.655 59.967 C 214.933 60.287,214.718 55.792,214.408 54.800 C 214.231 54.236,214.186 55.107,214.303 56.800 M191.988 55.800 C 191.841 57.486,192.027 59.705,192.367 60.320 C 192.525 60.606,192.586 59.706,192.504 58.320 C 192.317 55.177,192.124 54.237,191.988 55.800 M211.020 56.587 C 211.759 58.355,211.750 60.475,210.995 62.966 C 210.667 64.047,210.472 65.006,210.562 65.096 C 210.861 65.394,212.000 60.902,212.000 59.426 C 212.000 58.061,211.080 55.200,210.641 55.200 C 210.531 55.200,210.702 55.824,211.020 56.587 M192.804 61.407 C 192.796 62.251,195.012 65.112,198.142 68.300 L 201.382 71.600 204.662 71.600 C 208.102 71.600,209.601 70.764,209.599 68.846 C 209.599 68.491,209.284 68.830,208.899 69.600 L 208.200 71.000 204.878 71.117 L 201.556 71.233 198.720 68.517 C 197.160 67.022,195.192 64.720,194.346 63.400 C 193.500 62.080,192.806 61.183,192.804 61.407 M214.470 62.650 C 214.431 63.558,214.311 64.908,214.201 65.650 L 214.003 67.000 214.423 65.662 C 214.653 64.927,214.774 63.577,214.691 62.662 L 214.540 61.000 214.470 62.650 M188.182 65.565 C 188.963 67.075,192.958 72.360,195.560 75.323 L 197.600 77.647 197.600 85.614 L 197.600 93.582 190.200 93.705 L 182.799 93.827 190.300 93.814 L 197.800 93.800 197.908 85.723 L 198.016 77.645 196.308 75.651 C 192.749 71.497,191.675 70.117,189.806 67.300 C 187.794 64.266,187.160 63.590,188.182 65.565 M209.829 66.629 C 209.681 67.215,209.651 67.784,209.761 67.894 C 209.871 68.004,210.081 67.615,210.229 67.029 C 210.376 66.442,210.406 65.873,210.296 65.763 C 210.186 65.653,209.976 66.042,209.829 66.629 M213.046 69.846 C 212.692 70.885,212.472 71.805,212.556 71.890 C 212.641 71.974,213.000 71.193,213.354 70.154 C 213.708 69.115,213.928 68.195,213.844 68.110 C 213.759 68.026,213.400 68.807,213.046 69.846 M211.472 73.819 C 210.532 75.789,210.664 76.124,211.647 74.262 C 212.093 73.416,212.387 72.654,212.301 72.567 C 212.214 72.481,211.841 73.044,211.472 73.819 M210.281 78.960 C 210.126 80.699,210.027 83.939,210.060 86.160 C 210.113 89.738,210.158 89.446,210.458 83.600 C 210.826 76.428,210.730 73.905,210.281 78.960 M267.400 93.167 L 269.800 93.400 269.910 125.200 C 269.971 142.690,269.922 157.405,269.802 157.900 C 269.552 158.936,266.316 159.210,264.674 158.335 C 263.884 157.914,263.853 157.933,264.349 158.535 C 265.191 159.555,269.425 159.474,269.986 158.426 C 270.434 157.589,270.600 94.586,270.157 93.433 C 269.968 92.940,269.372 92.815,267.457 92.867 L 265.000 92.934 267.400 93.167 M262.685 96.381 C 260.116 100.668,257.437 103.867,255.261 105.247 C 253.356 106.456,253.271 106.805,255.120 105.831 C 256.488 105.111,259.522 101.945,261.101 99.590 C 262.880 96.936,264.857 93.523,264.703 93.370 C 264.630 93.296,263.722 94.652,262.685 96.381 M175.600 94.422 C 174.735 94.617,175.423 94.655,177.400 94.520 C 179.160 94.401,180.675 94.235,180.767 94.151 C 181.061 93.884,177.049 94.094,175.600 94.422 M209.606 94.651 C 209.596 95.409,210.651 96.030,212.264 96.214 L 213.800 96.390 212.085 95.895 C 211.142 95.623,210.199 95.130,209.991 94.800 C 209.783 94.470,209.609 94.403,209.606 94.651 M170.200 95.200 L 169.000 95.505 170.200 95.525 C 170.860 95.535,171.760 95.389,172.200 95.200 L 173.000 94.856 172.200 94.875 C 171.760 94.886,170.860 95.032,170.200 95.200 M166.400 96.000 C 165.608 96.254,165.567 96.320,166.200 96.320 C 166.640 96.320,167.450 96.176,168.000 96.000 C 168.792 95.746,168.833 95.680,168.200 95.680 C 167.760 95.680,166.950 95.824,166.400 96.000 M160.200 97.553 C 144.592 102.354,131.735 111.182,122.802 123.230 C 120.197 126.743,117.461 131.195,117.737 131.471 C 117.831 131.565,118.544 130.507,119.321 129.121 C 126.192 116.861,138.852 106.205,153.501 100.353 C 157.164 98.889,162.340 97.203,163.195 97.194 C 163.528 97.191,164.070 97.013,164.400 96.800 C 165.465 96.112,164.075 96.361,160.200 97.553 M214.490 96.624 C 214.688 96.822,219.293 98.087,222.000 98.688 C 224.496 99.241,222.180 98.325,218.780 97.415 C 214.921 96.381,214.095 96.229,214.490 96.624 M223.201 98.930 C 224.534 100.234,233.375 102.564,237.200 102.620 L 241.400 102.681 237.200 102.426 C 233.763 102.217,232.309 101.912,229.200 100.746 C 225.479 99.352,222.804 98.542,223.201 98.930 M191.400 103.184 L 197.400 103.400 197.520 127.200 C 197.662 155.166,197.575 156.981,196.116 156.615 C 193.845 156.045,192.754 156.048,194.739 156.619 C 196.379 157.090,197.008 157.125,197.439 156.768 C 198.206 156.131,198.285 104.045,197.520 103.280 C 197.182 102.942,195.313 102.825,191.220 102.884 L 185.400 102.967 191.400 103.184 M179.200 103.616 C 178.573 103.826,179.170 103.866,180.800 103.723 C 182.230 103.597,183.475 103.428,183.567 103.347 C 183.895 103.058,180.180 103.286,179.200 103.616 M241.500 104.188 C 241.850 106.017,245.011 107.210,249.400 107.167 C 253.492 107.127,253.389 106.602,249.283 106.567 C 244.390 106.526,242.252 105.853,242.073 104.300 C 242.004 103.695,241.804 103.200,241.629 103.200 C 241.454 103.200,241.396 103.645,241.500 104.188 M172.868 104.670 C 171.476 105.000,170.413 105.346,170.507 105.440 C 170.600 105.534,172.100 105.266,173.838 104.846 C 175.577 104.426,176.640 104.080,176.200 104.076 C 175.760 104.073,174.261 104.340,172.868 104.670 M209.369 105.335 C 209.256 105.630,209.226 107.295,209.302 109.035 L 209.439 112.200 209.520 108.682 L 209.600 105.164 211.100 105.386 C 212.216 105.552,212.395 105.512,211.800 105.232 C 210.628 104.681,209.604 104.725,209.369 105.335 M167.400 106.378 C 165.292 107.376,165.696 107.396,168.200 106.418 C 169.300 105.989,169.930 105.634,169.600 105.629 C 169.270 105.625,168.280 105.962,167.400 106.378 M214.600 106.418 C 215.700 106.848,216.777 107.141,216.993 107.069 C 217.413 106.929,213.746 105.587,213.029 105.619 C 212.793 105.629,213.500 105.989,214.600 106.418 M162.800 108.467 C 156.708 111.955,150.781 118.471,150.804 121.656 C 150.806 121.955,151.260 121.229,151.812 120.042 C 153.969 115.410,157.632 111.746,163.200 108.653 C 164.630 107.859,165.620 107.209,165.400 107.208 C 165.180 107.208,164.010 107.774,162.800 108.467 M219.158 108.037 C 220.125 108.466,220.988 108.745,221.075 108.658 C 221.248 108.486,218.165 107.182,217.692 107.228 C 217.531 107.244,218.191 107.608,219.158 108.037 M221.633 108.964 C 221.725 109.055,223.000 109.754,224.466 110.517 C 225.932 111.281,228.722 112.922,230.666 114.165 C 232.610 115.408,233.660 115.962,233.000 115.396 C 230.613 113.351,219.983 107.336,221.633 108.964 M208.771 113.633 C 208.756 114.165,208.574 118.650,208.367 123.600 C 208.160 128.550,207.921 136.110,207.836 140.400 L 207.682 148.200 208.003 141.400 C 208.729 126.034,209.181 113.047,208.996 112.863 C 208.888 112.755,208.787 113.102,208.771 113.633 M234.400 116.522 C 234.400 116.618,236.026 118.098,238.013 119.812 C 241.937 123.194,246.929 128.744,250.597 133.800 C 252.932 137.019,254.032 138.362,253.381 137.200 C 250.284 131.669,234.400 114.365,234.400 116.522 M150.252 123.300 C 149.625 125.639,150.019 132.186,150.912 134.292 C 153.177 139.631,161.108 146.564,166.800 148.180 C 167.350 148.336,165.987 147.560,163.771 146.457 C 154.907 142.041,150.600 135.907,150.600 127.700 C 150.600 121.938,150.604 121.987,150.252 123.300 M116.161 134.250 C 115.614 135.487,115.264 136.597,115.383 136.716 C 115.502 136.836,115.600 136.836,115.600 136.716 C 115.600 136.597,116.048 135.487,116.595 134.250 C 117.142 133.012,117.492 132.000,117.373 132.000 C 117.254 132.000,116.708 133.012,116.161 134.250 M254.200 139.200 C 254.541 139.860,254.911 140.400,255.021 140.400 C 255.131 140.400,254.941 139.860,254.600 139.200 C 254.259 138.540,253.889 138.000,253.779 138.000 C 253.669 138.000,253.859 138.540,254.200 139.200 M113.222 141.822 C 112.764 143.307,112.460 144.593,112.548 144.681 C 112.635 144.769,113.079 143.622,113.533 142.133 C 113.988 140.644,114.291 139.358,114.208 139.274 C 114.124 139.191,113.681 140.337,113.222 141.822 M111.463 148.207 C 110.788 151.277,110.659 152.274,110.978 151.955 C 111.253 151.680,112.471 145.538,112.287 145.354 C 112.198 145.265,111.827 146.549,111.463 148.207 M207.018 153.578 C 206.709 158.752,206.887 160.007,207.927 159.988 C 208.527 159.977,208.521 159.930,207.876 159.554 C 207.211 159.168,207.174 158.703,207.432 153.966 C 207.586 151.125,207.621 148.800,207.508 148.800 C 207.395 148.800,207.174 150.950,207.018 153.578 M176.600 151.970 C 178.106 152.583,180.257 153.200,180.828 153.182 C 181.143 153.173,180.734 152.927,179.920 152.636 C 178.226 152.032,175.317 151.448,176.600 151.970 M110.213 155.013 C 110.057 156.471,110.020 157.753,110.130 157.863 C 110.240 157.973,110.457 156.871,110.613 155.413 C 110.769 153.956,110.807 152.674,110.697 152.564 C 110.587 152.454,110.369 153.556,110.213 155.013 M182.000 153.582 C 182.330 153.805,182.945 153.991,183.367 153.994 C 184.390 154.002,184.071 153.773,182.600 153.444 C 181.724 153.248,181.562 153.285,182.000 153.582 M184.800 154.379 C 185.130 154.604,185.925 154.791,186.567 154.794 C 188.104 154.802,187.784 154.570,185.800 154.238 C 184.654 154.046,184.370 154.086,184.800 154.379 M188.600 155.150 C 189.040 155.335,190.120 155.599,191.000 155.737 C 192.015 155.895,192.308 155.864,191.800 155.650 C 191.360 155.465,190.280 155.201,189.400 155.063 C 188.385 154.905,188.092 154.936,188.600 155.150 M263.111 156.374 C 263.482 157.020,263.840 157.493,263.907 157.426 C 264.124 157.209,263.083 155.200,262.754 155.200 C 262.580 155.200,262.740 155.728,263.111 156.374 M109.770 167.200 C 109.770 171.930,109.828 173.865,109.898 171.500 C 109.969 169.135,109.969 165.265,109.898 162.900 C 109.828 160.535,109.770 162.470,109.770 167.200 M209.400 160.400 C 209.840 160.589,210.470 160.744,210.800 160.744 C 211.178 160.744,211.104 160.617,210.600 160.400 C 210.160 160.211,209.530 160.056,209.200 160.056 C 208.822 160.056,208.896 160.183,209.400 160.400 M212.200 161.200 C 213.396 161.714,214.395 161.714,213.600 161.200 C 213.270 160.987,212.640 160.822,212.200 160.834 L 211.400 160.856 212.200 161.200 M215.200 162.000 C 215.530 162.213,216.070 162.388,216.400 162.388 C 216.933 162.388,216.933 162.345,216.400 162.000 C 216.070 161.787,215.530 161.612,215.200 161.612 C 214.667 161.612,214.667 161.655,215.200 162.000 M217.800 162.800 C 218.240 162.989,218.870 163.144,219.200 163.144 C 219.578 163.144,219.504 163.017,219.000 162.800 C 218.560 162.611,217.930 162.456,217.600 162.456 C 217.222 162.456,217.296 162.583,217.800 162.800 M220.000 163.372 C 220.000 163.570,224.155 164.815,224.662 164.769 C 225.100 164.729,221.158 163.272,220.500 163.231 C 220.225 163.214,220.000 163.277,220.000 163.372 M226.244 165.382 C 226.928 165.698,228.008 166.059,228.644 166.184 C 229.633 166.379,229.598 166.333,228.400 165.863 C 226.240 165.016,224.713 164.676,226.244 165.382 M234.033 168.155 C 234.400 168.494,243.363 172.370,243.490 172.244 C 243.647 172.086,234.704 168.000,234.202 168.000 C 234.018 168.000,233.942 168.070,234.033 168.155 M247.200 174.193 C 247.200 174.300,248.100 174.843,249.200 175.400 C 251.715 176.675,251.821 176.416,249.350 175.034 C 247.427 173.960,247.200 173.871,247.200 174.193 M110.076 176.800 C 110.067 177.350,110.203 178.610,110.380 179.600 C 110.620 180.950,110.707 181.100,110.727 180.200 C 110.742 179.540,110.605 178.280,110.423 177.400 C 110.216 176.398,110.086 176.174,110.076 176.800 M251.600 176.543 C 251.600 176.622,253.486 177.799,255.792 179.158 C 265.378 184.809,271.887 191.558,276.644 200.778 C 278.137 203.673,278.685 204.401,277.986 202.562 C 275.790 196.788,268.173 187.376,262.000 182.812 C 258.314 180.086,251.600 176.040,251.600 176.543 M110.868 182.200 C 110.874 182.640,111.024 183.450,111.200 184.000 L 111.520 185.000 111.532 184.000 C 111.538 183.450,111.389 182.640,111.200 182.200 L 110.856 181.400 110.868 182.200 M111.634 185.600 C 111.646 185.930,111.811 186.560,112.000 187.000 L 112.344 187.800 112.366 187.000 C 112.378 186.560,112.213 185.930,112.000 185.600 C 111.655 185.067,111.615 185.067,111.634 185.600 M208.800 186.757 C 208.800 187.244,209.827 187.600,211.233 187.600 L 212.400 187.600 212.400 194.200 L 212.400 200.800 210.633 200.800 C 208.623 200.800,207.600 201.101,207.600 201.692 C 207.600 201.958,207.776 201.952,208.110 201.675 C 208.391 201.442,209.516 201.195,210.610 201.126 L 212.600 201.000 212.600 194.200 L 212.600 187.400 211.100 187.276 C 210.275 187.208,209.600 186.983,209.600 186.776 C 209.600 186.569,209.420 186.400,209.200 186.400 C 208.980 186.400,208.800 186.561,208.800 186.757 M213.600 193.699 L 213.800 201.000 215.792 201.126 C 216.888 201.195,217.913 201.460,218.071 201.714 C 218.228 201.969,218.496 202.037,218.667 201.867 C 219.207 201.326,217.867 200.812,215.900 200.806 L 214.000 200.800 214.000 193.600 C 214.000 189.640,213.865 186.400,213.700 186.399 C 213.535 186.399,213.490 189.684,213.600 193.699 M231.200 187.600 C 231.200 188.260,231.335 188.800,231.500 188.800 C 231.665 188.800,231.800 188.260,231.800 187.600 C 231.800 186.940,231.665 186.400,231.500 186.400 C 231.335 186.400,231.200 186.940,231.200 187.600 M232.600 187.600 C 232.600 188.260,232.735 188.800,232.900 188.800 C 233.065 188.800,233.200 188.260,233.200 187.600 C 233.200 186.940,233.065 186.400,232.900 186.400 C 232.735 186.400,232.600 186.940,232.600 187.600 M151.467 187.467 C 151.320 187.613,151.200 188.411,151.200 189.240 C 151.200 190.586,151.083 190.760,150.100 190.873 C 148.790 191.024,148.775 191.712,150.076 192.017 C 150.945 192.220,151.012 192.465,151.203 196.154 C 151.397 199.887,151.463 200.124,152.586 201.089 C 153.291 201.695,153.826 201.922,153.916 201.652 C 154.001 201.397,154.933 201.200,156.057 201.200 C 157.282 201.200,157.952 201.354,157.800 201.600 C 157.378 202.283,159.069 202.039,159.875 201.300 C 160.294 200.915,160.420 200.744,160.154 200.919 C 159.889 201.095,159.567 201.071,159.440 200.865 C 159.313 200.660,158.063 200.583,156.662 200.696 C 154.326 200.883,154.061 200.823,153.458 199.961 C 152.964 199.255,152.800 199.185,152.800 199.678 C 152.800 200.038,153.025 200.414,153.300 200.512 C 153.575 200.610,153.661 200.839,153.490 201.021 C 152.563 202.013,151.797 199.896,151.662 195.969 L 151.524 191.965 150.262 191.699 L 149.000 191.434 150.200 191.215 C 151.289 191.016,151.412 190.836,151.525 189.265 C 151.619 187.953,151.789 187.587,152.225 187.754 C 152.541 187.876,152.800 187.801,152.800 187.587 C 152.800 187.147,151.870 187.063,151.467 187.467 M112.626 188.800 C 112.977 190.327,115.254 195.986,115.604 196.202 C 115.864 196.363,113.967 191.302,112.755 188.600 C 112.456 187.934,112.434 187.968,112.626 188.800 M152.799 190.900 C 152.800 191.065,154.195 191.232,155.900 191.271 L 159.000 191.341 156.200 191.610 L 153.400 191.879 156.104 191.840 C 159.854 191.785,159.709 191.046,155.899 190.800 C 154.194 190.690,152.799 190.735,152.799 190.900 M132.875 191.202 C 131.899 191.614,130.800 192.567,130.800 193.000 C 130.800 193.142,131.277 192.882,131.861 192.423 C 133.186 191.381,133.563 191.637,132.406 192.794 C 131.598 193.602,131.584 193.716,132.181 194.628 C 132.916 195.748,132.596 195.901,131.531 194.938 C 131.084 194.533,130.800 194.457,130.800 194.744 C 130.800 195.581,133.335 196.797,135.081 196.799 C 136.931 196.800,138.797 197.484,138.806 198.164 C 138.809 198.404,138.969 198.352,139.161 198.049 C 139.595 197.364,140.400 197.809,140.400 198.735 C 140.400 199.113,140.116 199.867,139.768 200.411 L 139.136 201.400 139.968 200.456 C 141.040 199.239,141.021 198.340,139.900 197.320 C 138.305 195.867,135.512 194.886,136.216 196.027 C 136.389 196.306,135.982 196.410,135.032 196.327 C 134.235 196.257,133.603 196.036,133.627 195.836 C 133.652 195.636,133.386 195.312,133.036 195.116 C 132.026 194.551,132.251 192.996,133.419 192.464 C 135.261 191.625,137.026 191.887,138.247 193.182 C 139.085 194.069,139.491 194.256,139.881 193.933 C 140.440 193.469,140.591 191.764,140.100 191.465 C 139.414 191.048,133.729 190.841,132.875 191.202 M167.886 191.048 C 167.363 191.571,167.590 191.905,168.600 192.098 C 169.844 192.336,169.894 192.092,168.700 191.612 C 167.917 191.298,167.993 191.247,169.286 191.225 L 170.773 191.200 170.907 195.300 L 171.041 199.400 171.020 195.200 L 171.000 191.000 169.586 190.881 C 168.808 190.815,168.043 190.890,167.886 191.048 M175.485 191.048 C 174.934 191.600,175.211 191.948,176.300 192.073 C 177.567 192.219,178.235 198.153,177.133 199.480 C 176.029 200.811,172.891 201.291,171.700 200.313 C 171.350 200.026,171.200 200.044,171.200 200.375 C 171.200 201.249,170.416 200.372,170.042 199.080 C 169.712 197.938,169.668 197.908,169.638 198.800 C 169.598 199.961,171.530 202.484,171.858 201.700 C 172.115 201.084,174.080 201.040,174.677 201.637 C 174.993 201.953,175.359 201.943,176.000 201.600 C 176.641 201.257,177.007 201.247,177.323 201.563 C 177.952 202.192,178.414 202.101,178.145 201.400 C 178.018 201.070,177.542 200.800,177.087 200.800 C 176.264 200.800,176.264 200.796,177.130 199.874 C 177.885 199.071,178.000 198.490,178.000 195.486 L 178.000 192.023 176.700 191.648 L 175.400 191.272 177.100 191.236 L 178.800 191.200 178.800 196.013 C 178.800 200.231,178.886 200.857,179.500 201.083 C 179.885 201.225,180.332 201.535,180.494 201.771 C 180.686 202.052,180.790 202.015,180.794 201.663 C 180.797 201.367,180.445 201.032,180.012 200.919 C 179.291 200.730,179.214 200.302,179.112 195.856 L 179.000 191.000 177.385 190.881 C 176.498 190.816,175.643 190.891,175.485 191.048 M188.081 191.141 C 187.670 191.402,187.698 191.583,188.217 192.014 C 189.590 193.153,193.290 201.249,193.031 202.546 C 192.599 204.706,191.773 205.542,189.937 205.677 C 186.485 205.931,187.727 206.800,191.543 206.800 C 194.984 206.800,196.748 206.225,194.840 205.726 C 193.753 205.442,193.781 205.003,195.052 202.375 C 195.630 201.179,196.898 198.490,197.870 196.400 C 198.842 194.310,199.917 192.387,200.259 192.127 C 201.230 191.386,200.516 190.800,198.643 190.800 C 196.558 190.800,196.101 191.170,197.177 191.985 C 197.934 192.557,197.949 192.681,197.388 193.760 C 197.057 194.397,196.866 194.999,196.963 195.097 C 197.162 195.295,198.400 193.042,198.400 192.481 C 198.400 192.284,197.995 191.927,197.500 191.688 C 196.714 191.309,196.844 191.251,198.520 191.227 L 200.441 191.200 199.420 192.538 C 198.859 193.274,198.400 193.987,198.400 194.122 C 198.400 194.258,197.223 196.835,195.784 199.849 C 193.173 205.317,193.091 205.752,194.600 206.115 C 195.040 206.221,193.780 206.304,191.800 206.300 C 188.910 206.294,188.580 206.240,190.128 206.025 C 192.212 205.735,192.552 205.414,193.281 203.047 C 193.745 201.538,193.684 201.347,191.154 196.347 L 188.549 191.200 190.374 191.225 C 191.873 191.246,192.039 191.315,191.300 191.612 C 190.803 191.812,190.421 192.293,190.446 192.687 C 190.486 193.301,190.517 193.308,190.668 192.741 C 190.764 192.379,191.211 191.986,191.662 191.868 C 192.112 191.750,192.362 191.462,192.217 191.227 C 191.907 190.726,188.836 190.663,188.081 191.141 M228.498 191.066 C 227.552 191.447,228.446 192.000,229.924 191.947 L 231.400 191.895 230.000 191.588 C 228.776 191.319,228.868 191.288,230.738 191.340 L 232.876 191.400 232.938 196.200 L 233.000 201.000 235.200 201.040 C 237.250 201.077,237.270 201.069,235.500 200.918 L 233.600 200.756 233.600 196.021 C 233.600 192.072,233.495 191.245,232.967 191.043 C 232.225 190.758,229.223 190.773,228.498 191.066 M246.267 191.067 C 245.806 191.527,245.975 192.000,246.600 192.000 C 247.659 192.000,247.465 200.637,246.400 200.916 C 245.960 201.031,245.603 201.367,245.606 201.663 C 245.610 202.015,245.714 202.052,245.906 201.771 C 246.068 201.535,246.515 201.225,246.900 201.083 C 247.508 200.859,247.600 200.251,247.600 196.432 C 247.600 192.671,247.499 191.981,246.900 191.632 C 246.302 191.283,246.360 191.223,247.300 191.212 C 248.017 191.204,248.400 191.409,248.400 191.800 C 248.400 192.130,248.670 192.400,249.000 192.400 C 249.747 192.400,249.743 192.777,248.987 193.776 C 247.765 195.393,248.189 200.636,249.600 201.340 C 250.260 201.669,250.800 201.776,250.800 201.577 C 250.800 201.378,250.350 201.102,249.800 200.964 C 248.108 200.540,248.286 194.801,250.042 193.160 C 251.435 191.860,252.949 191.669,254.311 192.623 C 255.446 193.418,255.693 200.636,254.600 201.055 C 254.270 201.182,254.000 201.448,254.000 201.646 C 254.000 201.845,254.360 201.782,254.800 201.507 C 255.714 200.936,255.996 194.368,255.179 192.674 C 254.887 192.068,255.070 192.168,255.777 193.000 C 256.827 194.236,257.113 194.132,256.388 192.778 C 255.473 191.068,252.332 190.301,250.208 191.269 C 249.420 191.628,249.068 191.628,248.709 191.269 C 248.201 190.761,246.697 190.636,246.267 191.067 M136.100 191.482 C 135.605 191.578,134.795 191.578,134.300 191.482 C 133.805 191.387,134.210 191.309,135.200 191.309 C 136.190 191.309,136.595 191.387,136.100 191.482 M253.300 191.482 C 252.805 191.578,251.995 191.578,251.500 191.482 C 251.005 191.387,251.410 191.309,252.400 191.309 C 253.390 191.309,253.795 191.387,253.300 191.482 M140.000 192.600 C 140.000 193.763,139.319 193.904,138.557 192.900 C 137.783 191.880,137.878 191.600,139.000 191.600 C 139.800 191.600,140.000 191.800,140.000 192.600 M231.600 196.379 L 231.600 200.758 229.531 200.879 C 228.255 200.954,227.424 201.195,227.361 201.510 C 227.306 201.791,227.351 201.836,227.463 201.610 C 227.575 201.385,228.642 201.200,229.833 201.200 L 232.000 201.200 232.000 196.600 C 232.000 194.070,231.910 192.000,231.800 192.000 C 231.690 192.000,231.600 193.971,231.600 196.379 M192.394 196.888 C 193.251 198.710,194.096 200.200,194.274 200.200 C 194.638 200.200,196.786 196.417,196.772 195.800 C 196.767 195.580,196.324 196.243,195.788 197.272 C 194.413 199.912,194.296 199.892,192.774 196.747 C 192.025 195.198,191.283 193.851,191.125 193.754 C 190.967 193.656,191.538 195.066,192.394 196.888 M116.000 196.946 C 116.000 198.488,122.470 206.912,126.374 210.451 C 130.073 213.805,141.200 221.173,141.200 220.269 C 141.200 220.159,139.985 219.390,138.500 218.559 C 129.799 213.695,123.556 208.117,118.872 201.025 C 117.292 198.633,116.000 196.798,116.000 196.946 M130.267 198.267 C 130.120 198.413,130.000 199.293,130.000 200.220 L 130.000 201.908 132.000 201.877 C 133.100 201.861,134.000 201.702,134.000 201.524 C 134.000 201.009,137.116 201.149,137.291 201.672 C 137.381 201.943,137.746 202.030,138.149 201.875 C 138.535 201.727,138.734 201.416,138.591 201.185 C 138.448 200.954,138.569 200.458,138.859 200.082 C 139.238 199.592,139.128 199.621,138.470 200.183 C 136.827 201.587,132.501 200.818,131.660 198.973 C 131.216 197.997,130.765 197.769,130.267 198.267 M131.200 198.800 C 131.200 199.020,131.575 199.575,132.033 200.033 C 132.985 200.985,132.981 200.996,131.500 201.351 C 130.439 201.606,130.400 201.559,130.400 200.008 C 130.400 199.123,130.580 198.400,130.800 198.400 C 131.020 198.400,131.200 198.580,131.200 198.800 M278.653 204.800 C 279.081 206.486,279.612 207.721,279.820 207.514 C 279.928 207.405,279.653 206.525,279.208 205.558 C 278.763 204.591,278.513 204.250,278.653 204.800 M280.056 208.400 C 280.056 208.730,280.211 209.360,280.400 209.800 C 280.617 210.304,280.744 210.378,280.744 210.000 C 280.744 209.670,280.589 209.040,280.400 208.600 C 280.183 208.096,280.056 208.022,280.056 208.400 M280.856 211.200 C 280.856 211.530,281.011 212.160,281.200 212.600 C 281.417 213.104,281.544 213.178,281.544 212.800 C 281.544 212.470,281.389 211.840,281.200 211.400 C 280.983 210.896,280.856 210.822,280.856 211.200 M281.680 214.200 C 281.680 214.640,281.824 215.450,282.000 216.000 C 282.254 216.792,282.320 216.833,282.320 216.200 C 282.320 215.760,282.176 214.950,282.000 214.400 C 281.746 213.608,281.680 213.567,281.680 214.200 M282.463 218.200 C 282.454 218.640,282.595 219.720,282.777 220.600 L 283.108 222.200 283.114 220.800 C 283.117 220.030,282.976 218.950,282.800 218.400 C 282.541 217.591,282.477 217.553,282.463 218.200 M142.000 220.823 C 143.242 221.672,147.288 223.646,147.452 223.482 C 147.545 223.388,146.353 222.656,144.801 221.856 C 142.094 220.459,140.737 219.959,142.000 220.823 M283.400 233.800 C 283.400 239.960,283.519 244.100,283.665 243.000 C 283.811 241.900,283.930 237.760,283.930 233.800 C 283.930 229.840,283.811 225.700,283.665 224.600 C 283.519 223.500,283.400 227.640,283.400 233.800 M148.000 223.771 C 148.000 223.971,152.378 226.009,152.748 225.981 C 153.064 225.957,148.709 223.645,148.300 223.619 C 148.135 223.608,148.000 223.677,148.000 223.771 M154.000 226.566 C 154.550 226.860,155.450 227.212,156.000 227.349 C 156.550 227.486,156.280 227.252,155.400 226.829 C 153.590 225.958,152.468 225.748,154.000 226.566 M157.200 227.795 C 157.200 228.061,159.990 229.207,160.549 229.170 C 160.797 229.154,160.280 228.807,159.400 228.400 C 157.709 227.617,157.200 227.477,157.200 227.795 M162.600 229.971 C 163.480 230.394,164.470 230.739,164.800 230.738 C 165.484 230.734,163.505 229.825,162.000 229.450 C 161.450 229.314,161.720 229.548,162.600 229.971 M109.695 268.900 C 109.747 290.295,109.837 301.500,109.894 293.800 C 110.169 257.037,110.172 230.000,109.900 230.000 C 109.735 230.000,109.643 247.505,109.695 268.900 M165.600 230.936 C 165.600 231.455,184.282 237.051,184.681 236.652 C 184.798 236.535,184.378 236.321,183.747 236.176 C 180.785 235.498,168.855 231.932,166.100 230.901 C 165.825 230.799,165.600 230.814,165.600 230.936 M116.099 233.300 C 116.200 233.575,116.688 235.026,117.183 236.526 C 117.677 238.025,118.166 239.167,118.268 239.065 C 118.483 238.851,116.394 232.800,116.105 232.800 C 116.000 232.800,115.997 233.025,116.099 233.300 M185.233 236.944 C 185.705 237.350,187.643 237.593,187.410 237.216 C 187.268 236.987,186.683 236.800,186.110 236.800 C 185.536 236.800,185.142 236.865,185.233 236.944 M190.000 238.000 C 190.550 238.176,191.360 238.326,191.800 238.332 L 192.600 238.344 191.800 238.000 C 191.360 237.811,190.550 237.662,190.000 237.668 L 189.000 237.680 190.000 238.000 M193.400 238.578 C 193.620 238.676,194.567 238.954,195.505 239.195 L 197.210 239.634 197.105 268.579 C 197.047 284.498,197.135 297.440,197.300 297.338 C 197.465 297.236,197.600 284.210,197.600 268.390 C 197.600 236.109,197.905 239.126,194.593 238.635 C 193.717 238.505,193.180 238.479,193.400 238.578 M203.680 241.280 C 203.388 241.572,203.227 242.787,203.269 244.380 L 203.338 247.000 203.569 244.416 C 203.778 242.074,203.894 241.810,204.800 241.598 C 205.673 241.393,205.707 241.327,205.067 241.082 C 204.148 240.728,204.246 240.714,203.680 241.280 M119.228 241.692 C 119.182 242.165,120.486 245.248,120.658 245.075 C 120.745 244.988,120.466 244.125,120.037 243.158 C 119.608 242.191,119.244 241.531,119.228 241.692 M206.400 241.745 C 206.400 242.009,210.841 243.293,211.046 243.088 C 211.133 243.000,210.439 242.708,209.503 242.439 C 208.566 242.169,207.485 241.858,207.100 241.748 C 206.715 241.637,206.400 241.635,206.400 241.745 M211.637 243.371 C 211.731 243.464,213.176 244.000,214.849 244.562 C 219.487 246.119,219.492 246.120,218.800 245.670 C 217.757 244.992,211.132 242.865,211.637 243.371 M120.800 245.720 C 120.800 246.381,126.260 257.600,126.582 257.600 C 126.731 257.600,121.278 246.035,120.940 245.633 C 120.863 245.542,120.800 245.581,120.800 245.720 M282.646 247.846 C 282.500 249.093,282.459 250.193,282.557 250.290 C 282.654 250.388,282.861 249.454,283.015 248.215 C 283.170 246.977,283.210 245.877,283.105 245.771 C 282.999 245.666,282.793 246.599,282.646 247.846 M220.746 246.616 C 221.486 246.937,222.206 247.194,222.346 247.186 C 222.866 247.157,220.576 246.028,220.000 246.030 C 219.670 246.031,220.006 246.294,220.746 246.616 M229.000 250.356 C 236.553 254.064,240.892 257.877,242.181 261.941 C 242.342 262.446,242.557 262.776,242.660 262.673 C 243.024 262.310,241.693 259.773,240.060 257.715 C 237.430 254.402,233.671 251.880,226.896 248.884 C 222.081 246.754,223.058 247.438,229.000 250.356 M202.860 251.400 C 202.827 253.160,202.630 257.840,202.422 261.800 C 202.215 265.760,201.961 272.330,201.858 276.400 C 201.701 282.613,201.722 283.030,201.992 279.000 C 202.551 270.637,203.305 250.648,203.109 249.400 C 203.005 248.740,202.893 249.640,202.860 251.400 M281.778 252.578 C 281.627 253.381,281.594 254.127,281.704 254.237 C 281.814 254.347,282.027 253.781,282.178 252.978 C 282.328 252.175,282.362 251.428,282.252 251.318 C 282.142 251.208,281.928 251.775,281.778 252.578 M281.000 256.000 C 280.848 256.691,280.814 257.347,280.924 257.457 C 281.034 257.567,281.248 257.091,281.400 256.400 C 281.552 255.709,281.586 255.053,281.476 254.943 C 281.366 254.833,281.152 255.309,281.000 256.000 M126.800 258.159 C 126.800 258.602,129.597 263.200,129.867 263.200 C 129.982 263.200,129.581 262.345,128.976 261.300 C 127.522 258.788,126.800 257.747,126.800 258.159 M280.273 258.553 C 280.123 258.945,280.011 259.566,280.025 259.933 C 280.042 260.375,280.181 260.274,280.437 259.634 C 280.649 259.103,280.761 258.482,280.685 258.254 C 280.609 258.027,280.424 258.161,280.273 258.553 M279.015 262.615 C 278.630 263.624,278.404 264.537,278.513 264.646 C 278.621 264.755,279.000 263.993,279.354 262.954 C 280.190 260.499,279.925 260.234,279.015 262.615 M243.014 264.000 C 243.162 264.550,243.427 267.070,243.602 269.600 L 243.921 274.200 243.840 269.400 C 243.788 266.346,243.574 264.309,243.252 263.800 C 242.779 263.054,242.763 263.067,243.014 264.000 M131.009 265.200 C 133.159 269.156,142.590 279.695,146.000 281.954 C 146.810 282.490,146.473 282.078,145.200 280.975 C 141.521 277.788,137.273 273.202,134.295 269.200 C 131.386 265.292,130.418 264.114,131.009 265.200 M277.400 266.661 C 277.064 267.465,276.882 268.215,276.995 268.328 C 277.108 268.441,277.200 268.435,277.200 268.316 C 277.200 268.196,277.472 267.446,277.805 266.649 C 278.138 265.852,278.321 265.200,278.211 265.200 C 278.101 265.200,277.736 265.858,277.400 266.661 M274.869 271.700 C 271.595 277.623,265.993 284.465,261.852 287.598 C 260.724 288.452,259.080 289.812,258.200 290.620 L 256.600 292.089 258.200 290.969 C 264.373 286.647,272.452 277.409,275.750 270.900 C 277.317 267.807,276.723 268.346,274.869 271.700 M243.249 275.000 C 243.216 275.440,243.096 276.250,242.983 276.800 L 242.777 277.800 243.206 276.819 C 243.442 276.279,243.561 275.469,243.472 275.019 C 243.313 274.221,243.307 274.221,243.249 275.000 M241.422 280.686 C 239.069 286.154,233.307 290.791,225.026 293.877 C 223.032 294.621,221.937 295.119,222.594 294.984 C 227.257 294.023,233.907 290.437,237.396 287.000 C 239.713 284.719,243.042 279.327,242.724 278.372 C 242.651 278.152,242.065 279.193,241.422 280.686 M147.959 283.351 C 148.680 284.219,155.616 288.517,155.877 288.257 C 155.985 288.148,155.473 287.751,154.737 287.375 C 154.002 286.998,152.050 285.787,150.400 284.683 C 148.750 283.580,147.652 282.980,147.959 283.351 M201.071 292.290 C 200.933 294.869,200.959 297.119,201.128 297.288 C 201.298 297.458,201.487 295.348,201.549 292.598 C 201.691 286.291,201.403 286.104,201.071 292.290 M156.400 288.599 C 156.400 289.025,166.069 293.219,166.969 293.183 C 167.206 293.173,165.870 292.541,164.000 291.777 C 160.709 290.433,158.554 289.483,157.100 288.733 C 156.715 288.534,156.400 288.474,156.400 288.599 M132.249 291.551 C 131.823 291.718,132.716 291.836,134.311 291.823 C 135.857 291.810,136.915 291.668,136.661 291.506 C 136.077 291.134,133.238 291.163,132.249 291.551 M127.910 293.264 C 125.642 294.494,120.753 298.992,119.102 301.367 C 118.630 302.045,119.891 300.873,121.903 298.762 C 124.562 295.972,126.303 294.528,128.280 293.474 C 129.776 292.676,130.820 292.023,130.600 292.022 C 130.380 292.022,129.170 292.580,127.910 293.264 M138.033 292.138 C 138.626 292.630,143.543 295.031,143.364 294.741 C 143.131 294.366,138.628 292.000,138.145 292.000 C 137.992 292.000,137.942 292.062,138.033 292.138 M167.650 293.353 C 167.984 293.727,173.621 295.313,173.840 295.094 C 173.934 294.999,172.794 294.597,171.306 294.199 C 169.818 293.802,168.330 293.386,168.000 293.275 C 167.670 293.164,167.513 293.199,167.650 293.353 M252.700 294.229 C 252.095 294.557,251.600 294.910,251.600 295.013 C 251.600 295.399,252.232 295.157,253.200 294.400 C 254.389 293.470,254.211 293.409,252.700 294.229 M145.558 296.037 C 146.525 296.466,147.388 296.745,147.475 296.658 C 147.648 296.486,144.565 295.182,144.092 295.228 C 143.931 295.244,144.591 295.608,145.558 296.037 M175.400 295.600 C 175.840 295.789,176.560 295.944,177.000 295.944 L 177.800 295.944 177.000 295.600 C 176.560 295.411,175.840 295.256,175.400 295.256 L 174.600 295.256 175.400 295.600 M218.800 295.600 C 217.996 295.857,217.957 295.923,218.600 295.932 C 219.040 295.938,219.760 295.789,220.200 295.600 C 221.219 295.162,220.168 295.162,218.800 295.600 M249.900 295.829 C 249.295 296.157,248.800 296.510,248.800 296.613 C 248.800 296.999,249.432 296.757,250.400 296.000 C 251.589 295.070,251.411 295.009,249.900 295.829 M179.400 296.400 C 180.060 296.568,181.050 296.705,181.600 296.705 C 182.492 296.705,182.470 296.672,181.400 296.400 C 180.740 296.232,179.750 296.095,179.200 296.095 C 178.308 296.095,178.330 296.128,179.400 296.400 M214.400 296.400 L 213.400 296.720 214.400 296.720 C 214.950 296.720,215.850 296.576,216.400 296.400 L 217.400 296.080 216.400 296.080 C 215.850 296.080,214.950 296.224,214.400 296.400 M148.200 297.090 C 148.701 297.580,154.043 299.691,154.251 299.482 C 154.336 299.398,153.101 298.804,151.508 298.164 C 147.592 296.590,147.735 296.637,148.200 297.090 M185.000 297.223 C 185.880 297.405,187.500 297.539,188.600 297.521 L 190.600 297.487 188.400 297.183 C 187.190 297.016,185.570 296.882,184.800 296.886 L 183.400 296.892 185.000 297.223 M207.200 297.200 L 205.000 297.470 207.200 297.512 C 208.410 297.535,210.120 297.405,211.000 297.223 L 212.600 296.892 211.000 296.911 C 210.120 296.922,208.410 297.052,207.200 297.200 M244.800 298.393 C 244.030 298.810,242.359 299.547,241.087 300.030 C 239.815 300.512,238.857 300.990,238.957 301.091 C 239.163 301.296,245.987 298.479,246.580 297.943 C 247.240 297.347,246.281 297.589,244.800 298.393 M154.833 299.762 C 155.136 300.056,163.602 302.801,164.106 302.768 C 164.378 302.750,162.530 302.038,160.000 301.184 C 155.661 299.719,154.445 299.385,154.833 299.762 M235.830 301.831 C 234.967 302.148,234.157 302.510,234.031 302.636 C 233.703 302.963,235.979 302.365,237.400 301.751 C 239.021 301.049,237.794 301.112,235.830 301.831 M116.382 305.274 C 115.478 306.635,114.995 307.536,115.309 307.276 C 115.920 306.768,118.481 302.800,118.196 302.800 C 118.103 302.800,117.286 303.913,116.382 305.274 M166.209 303.388 C 168.426 304.089,170.649 304.546,170.361 304.241 C 170.067 303.931,165.747 302.785,165.080 302.840 C 164.816 302.861,165.324 303.108,166.209 303.388 M231.200 303.197 C 230.650 303.380,229.660 303.658,229.000 303.814 C 228.340 303.971,227.980 304.166,228.200 304.248 C 228.420 304.330,229.770 304.051,231.200 303.629 C 232.630 303.207,233.440 302.862,233.000 302.862 C 232.560 302.863,231.750 303.013,231.200 303.197 M172.000 304.800 C 172.550 304.976,173.450 305.120,174.000 305.120 L 175.000 305.120 174.000 304.800 C 173.450 304.624,172.550 304.480,172.000 304.480 L 171.000 304.480 172.000 304.800 M224.400 304.800 L 223.400 305.120 224.400 305.120 C 224.950 305.120,225.850 304.976,226.400 304.800 L 227.400 304.480 226.400 304.480 C 225.850 304.480,224.950 304.624,224.400 304.800 M176.200 305.600 C 176.860 305.768,177.760 305.914,178.200 305.925 L 179.000 305.944 178.200 305.600 C 177.760 305.411,176.860 305.265,176.200 305.275 L 175.000 305.295 176.200 305.600 M220.400 305.600 C 219.056 306.031,220.508 306.031,222.200 305.600 C 223.278 305.326,223.298 305.294,222.400 305.287 C 221.850 305.283,220.950 305.424,220.400 305.600 M181.400 306.423 C 182.280 306.605,183.630 306.742,184.400 306.727 C 185.705 306.702,185.678 306.678,184.000 306.380 C 181.450 305.926,179.179 305.964,181.400 306.423 M214.000 306.400 L 212.200 306.680 213.800 306.717 C 214.680 306.737,216.120 306.605,217.000 306.423 L 218.600 306.092 217.200 306.106 C 216.430 306.114,214.990 306.246,214.000 306.400 M187.600 307.040 C 188.150 307.137,190.490 307.348,192.800 307.508 L 197.000 307.800 196.839 345.827 C 196.733 370.814,196.816 384.099,197.080 384.571 C 197.368 385.087,197.555 383.511,197.747 378.944 C 197.894 375.455,198.124 370.890,198.259 368.800 C 198.394 366.710,198.385 365.111,198.239 365.247 C 198.093 365.383,197.813 367.813,197.618 370.647 C 197.395 373.886,197.343 363.240,197.477 341.986 C 197.655 313.740,197.600 308.099,197.145 307.725 C 196.842 307.476,194.379 307.185,191.600 307.070 C 188.850 306.956,187.050 306.942,187.600 307.040 M203.336 307.095 C 200.320 307.268,200.489 306.865,200.251 314.478 L 200.059 320.600 200.529 314.200 L 201.000 307.800 206.200 307.362 C 211.243 306.938,209.280 306.755,203.336 307.095 M199.472 330.604 C 199.327 331.482,199.233 334.000,199.262 336.200 L 199.316 340.200 199.652 335.000 C 200.001 329.610,199.928 327.842,199.472 330.604 M198.689 349.159 C 198.530 350.566,198.426 353.176,198.457 354.959 C 198.511 357.956,198.541 357.824,198.862 353.200 C 199.246 347.663,199.139 345.165,198.689 349.159 " stroke="none" fill="#e2ccb5" fill-rule="evenodd"></path><path id="path3" d="M184.093 53.600 C 184.093 54.370,184.175 54.685,184.276 54.300 C 184.376 53.915,184.376 53.285,184.276 52.900 C 184.175 52.515,184.093 52.830,184.093 53.600 M214.914 60.600 C 214.917 61.700,214.995 62.103,215.087 61.495 C 215.179 60.886,215.177 59.986,215.082 59.495 C 214.987 59.003,214.911 59.500,214.914 60.600 M198.800 68.525 C 198.800 68.594,199.385 69.179,200.100 69.825 L 201.400 71.000 200.225 69.700 C 199.130 68.488,198.800 68.216,198.800 68.525 M210.493 82.000 C 210.493 82.770,210.575 83.085,210.676 82.700 C 210.776 82.315,210.776 81.685,210.676 81.300 C 210.575 80.915,210.493 81.230,210.493 82.000 M197.348 89.600 C 197.348 91.910,197.414 92.855,197.495 91.700 C 197.576 90.545,197.576 88.655,197.495 87.500 C 197.414 86.345,197.348 87.290,197.348 89.600 M210.128 92.400 C 210.128 93.830,210.201 94.415,210.289 93.700 C 210.378 92.985,210.378 91.815,210.289 91.100 C 210.201 90.385,210.128 90.970,210.128 92.400 M266.500 92.687 C 267.105 92.778,268.095 92.778,268.700 92.687 C 269.305 92.595,268.810 92.520,267.600 92.520 C 266.390 92.520,265.895 92.595,266.500 92.687 M188.700 93.489 C 189.415 93.578,190.585 93.578,191.300 93.489 C 192.015 93.401,191.430 93.328,190.000 93.328 C 188.570 93.328,187.985 93.401,188.700 93.489 M180.900 93.876 C 181.285 93.976,181.915 93.976,182.300 93.876 C 182.685 93.775,182.370 93.693,181.600 93.693 C 180.830 93.693,180.515 93.775,180.900 93.876 M184.100 103.476 C 184.485 103.576,185.115 103.576,185.500 103.476 C 185.885 103.375,185.570 103.293,184.800 103.293 C 184.030 103.293,183.715 103.375,184.100 103.476 M197.200 128.720 L 197.400 154.200 197.503 129.023 C 197.560 115.176,197.470 103.710,197.303 103.543 C 197.136 103.376,197.090 114.706,197.200 128.720 M155.775 114.100 L 154.600 115.400 155.900 114.225 C 156.615 113.579,157.200 112.994,157.200 112.925 C 157.200 112.616,156.870 112.888,155.775 114.100 M128.378 116.300 L 127.000 117.800 128.500 116.422 C 129.896 115.138,130.184 114.800,129.878 114.800 C 129.812 114.800,129.137 115.475,128.378 116.300 M208.893 118.800 C 208.893 119.570,208.975 119.885,209.076 119.500 C 209.176 119.115,209.176 118.485,209.076 118.100 C 208.975 117.715,208.893 118.030,208.893 118.800 M241.400 123.200 C 242.483 124.300,243.460 125.200,243.570 125.200 C 243.680 125.200,242.883 124.300,241.800 123.200 C 240.717 122.100,239.740 121.200,239.630 121.200 C 239.520 121.200,240.317 122.100,241.400 123.200 M208.101 137.800 C 208.105 138.680,208.187 138.993,208.283 138.495 C 208.379 137.998,208.375 137.278,208.275 136.895 C 208.175 136.513,208.096 136.920,208.101 137.800 M207.293 156.000 C 207.293 156.770,207.375 157.085,207.476 156.700 C 207.576 156.315,207.576 155.685,207.476 155.300 C 207.375 154.915,207.293 155.230,207.293 156.000 M109.309 165.200 C 109.309 166.190,109.387 166.595,109.482 166.100 C 109.578 165.605,109.578 164.795,109.482 164.300 C 109.387 163.805,109.309 164.210,109.309 165.200 M109.309 169.600 C 109.309 170.590,109.387 170.995,109.482 170.500 C 109.578 170.005,109.578 169.195,109.482 168.700 C 109.387 168.205,109.309 168.610,109.309 169.600 M267.600 187.800 C 268.795 189.010,269.863 190.000,269.973 190.000 C 270.083 190.000,269.195 189.010,268.000 187.800 C 266.805 186.590,265.737 185.600,265.627 185.600 C 265.517 185.600,266.405 186.590,267.600 187.800 M213.044 186.966 C 213.211 187.404,213.179 187.634,212.968 187.504 C 212.749 187.369,212.600 190.069,212.600 194.152 C 212.600 199.998,212.690 201.029,213.200 201.029 C 213.919 201.030,213.879 187.316,213.158 186.601 C 212.885 186.331,212.848 186.450,213.044 186.966 M210.100 187.076 C 210.485 187.176,211.115 187.176,211.500 187.076 C 211.885 186.975,211.570 186.893,210.800 186.893 C 210.030 186.893,209.715 186.975,210.100 187.076 M151.590 189.281 C 151.484 190.316,151.545 191.015,151.726 190.834 C 151.907 190.653,151.993 189.807,151.919 188.953 L 151.783 187.400 151.590 189.281 M152.501 189.400 C 152.505 190.280,152.587 190.593,152.683 190.095 C 152.779 189.598,152.775 188.878,152.675 188.495 C 152.575 188.113,152.496 188.520,152.501 189.400 M132.297 192.050 C 131.914 192.264,131.600 192.701,131.600 193.020 C 131.600 193.446,131.822 193.378,132.433 192.767 C 133.385 191.815,133.321 191.477,132.297 192.050 M152.648 191.923 C 152.334 192.430,152.268 200.262,152.573 200.756 C 152.922 201.320,153.600 201.334,153.600 200.776 C 153.600 200.543,153.420 200.464,153.200 200.600 C 152.943 200.759,152.800 199.282,152.800 196.457 C 152.800 193.319,152.943 192.009,153.300 191.865 C 153.661 191.719,153.667 191.654,153.324 191.632 C 153.062 191.614,152.758 191.745,152.648 191.923 M169.596 194.918 L 169.793 198.200 169.915 195.239 C 169.982 193.610,169.894 192.133,169.719 191.957 C 169.543 191.780,169.488 193.113,169.596 194.918 M255.179 192.674 C 255.410 193.154,255.637 195.224,255.682 197.274 L 255.765 201.000 255.899 197.404 C 255.991 194.955,256.154 193.998,256.411 194.404 C 256.618 194.732,256.790 194.820,256.792 194.600 C 256.794 194.380,256.337 193.660,255.777 193.000 C 255.070 192.168,254.887 192.068,255.179 192.674 M151.742 195.800 C 151.741 197.780,151.808 198.640,151.892 197.712 C 151.976 196.784,151.977 195.164,151.895 194.112 C 151.812 193.060,151.743 193.820,151.742 195.800 M178.137 195.400 C 178.139 197.160,178.209 197.830,178.293 196.889 C 178.378 195.949,178.377 194.509,178.291 193.689 C 178.205 192.870,178.136 193.640,178.137 195.400 M232.000 196.600 C 232.000 199.133,232.159 200.800,232.400 200.800 C 232.641 200.800,232.800 199.133,232.800 196.600 C 232.800 194.067,232.641 192.400,232.400 192.400 C 232.159 192.400,232.000 194.067,232.000 196.600 M131.600 194.500 C 131.600 194.859,131.792 195.271,132.027 195.416 C 132.713 195.840,132.780 195.461,132.167 194.623 C 131.693 193.974,131.600 193.954,131.600 194.500 M197.000 195.200 C 196.864 195.420,196.864 195.780,197.000 196.000 C 197.136 196.220,197.046 196.400,196.800 196.400 C 196.554 196.400,196.476 196.599,196.626 196.843 C 197.013 197.469,197.594 196.451,197.295 195.671 C 197.145 195.279,197.227 195.170,197.532 195.358 C 197.789 195.517,198.000 195.457,198.000 195.224 C 198.000 194.687,197.327 194.671,197.000 195.200 M133.326 195.860 C 133.693 196.226,136.364 196.265,136.139 195.900 C 136.036 195.735,135.303 195.600,134.510 195.600 C 133.716 195.600,133.184 195.717,133.326 195.860 M195.873 197.754 C 195.742 198.095,195.795 198.473,195.990 198.594 C 196.500 198.909,196.804 198.254,196.429 197.647 C 196.181 197.246,196.059 197.269,195.873 197.754 M139.206 198.267 C 139.211 198.853,139.284 198.887,139.570 198.435 C 139.859 197.978,139.961 198.017,140.103 198.635 C 140.275 199.383,140.278 199.382,140.239 198.631 C 140.189 197.641,139.198 197.291,139.206 198.267 M170.247 198.723 C 170.087 198.982,170.122 199.488,170.323 199.848 C 170.795 200.691,171.187 200.041,170.819 199.027 C 170.628 198.501,170.445 198.404,170.247 198.723 M138.859 200.055 C 138.229 201.063,138.604 201.568,139.395 200.776 C 139.712 200.459,139.836 199.982,139.672 199.716 C 139.458 199.371,139.225 199.468,138.859 200.055 M177.000 200.000 C 176.295 200.779,176.301 200.799,177.238 200.768 C 177.767 200.751,177.967 200.644,177.683 200.530 C 177.287 200.370,177.275 200.192,177.632 199.761 C 178.350 198.896,177.817 199.097,177.000 200.000 M111.507 229.890 C 112.226 229.979,113.306 229.977,113.907 229.886 C 114.508 229.795,113.920 229.722,112.600 229.724 C 111.280 229.726,110.788 229.801,111.507 229.890 M109.392 268.800 C 109.392 290.030,109.441 298.715,109.500 288.100 C 109.559 277.485,109.559 260.115,109.500 249.500 C 109.441 238.885,109.392 247.570,109.392 268.800 M203.293 248.000 C 203.293 248.770,203.375 249.085,203.476 248.700 C 203.576 248.315,203.576 247.685,203.476 247.300 C 203.375 246.915,203.293 247.230,203.293 248.000 M196.896 276.667 C 196.821 292.593,196.689 297.178,196.300 297.335 C 195.908 297.493,195.911 297.544,196.313 297.568 C 197.191 297.623,197.211 297.097,197.100 276.400 L 196.992 256.200 196.896 276.667 M202.909 260.000 C 202.909 260.990,202.987 261.395,203.082 260.900 C 203.178 260.405,203.178 259.595,203.082 259.100 C 202.987 258.605,202.909 259.010,202.909 260.000 M202.501 267.400 C 202.505 268.280,202.587 268.593,202.683 268.095 C 202.779 267.598,202.775 266.878,202.675 266.495 C 202.575 266.113,202.496 266.520,202.501 267.400 M140.783 276.900 C 142.441 278.666,142.800 278.984,142.800 278.683 C 142.800 278.619,141.945 277.764,140.900 276.783 L 139.000 275.000 140.783 276.900 M202.109 278.400 C 202.109 279.390,202.187 279.795,202.282 279.300 C 202.378 278.805,202.378 277.995,202.282 277.500 C 202.187 277.005,202.109 277.410,202.109 278.400 M265.200 285.000 C 264.228 285.990,263.523 286.800,263.633 286.800 C 263.743 286.800,264.628 285.990,265.600 285.000 C 266.572 284.010,267.277 283.200,267.167 283.200 C 267.057 283.200,266.172 284.010,265.200 285.000 M201.693 284.800 C 201.693 285.570,201.775 285.885,201.876 285.500 C 201.976 285.115,201.976 284.485,201.876 284.100 C 201.775 283.715,201.693 284.030,201.693 284.800 M201.327 296.600 C 201.393 297.264,201.713 297.406,203.204 297.433 L 205.000 297.465 203.325 297.312 C 202.186 297.207,201.586 296.941,201.448 296.479 C 201.301 295.984,201.268 296.016,201.327 296.600 M191.100 297.482 C 191.595 297.578,192.405 297.578,192.900 297.482 C 193.395 297.387,192.990 297.309,192.000 297.309 C 191.010 297.309,190.605 297.387,191.100 297.482 M111.507 307.890 C 112.226 307.979,113.306 307.977,113.907 307.886 C 114.508 307.795,113.920 307.722,112.600 307.724 C 111.280 307.726,110.788 307.801,111.507 307.890 M196.800 322.920 L 196.999 338.200 197.105 323.225 C 197.163 314.989,197.073 308.113,196.905 307.945 C 196.737 307.777,196.690 314.516,196.800 322.920 M200.509 315.600 C 200.509 316.590,200.587 316.995,200.682 316.500 C 200.778 316.005,200.778 315.195,200.682 314.700 C 200.587 314.205,200.509 314.610,200.509 315.600 M200.093 321.600 C 200.093 322.370,200.175 322.685,200.276 322.300 C 200.376 321.915,200.376 321.285,200.276 320.900 C 200.175 320.515,200.093 320.830,200.093 321.600 M199.701 334.200 C 199.705 335.080,199.787 335.393,199.883 334.895 C 199.979 334.398,199.975 333.678,199.875 333.295 C 199.775 332.913,199.696 333.320,199.701 334.200 M199.342 343.400 C 199.341 345.380,199.408 346.240,199.492 345.312 C 199.576 344.384,199.577 342.764,199.495 341.712 C 199.412 340.660,199.343 341.420,199.342 343.400 M198.901 352.600 C 198.905 353.480,198.987 353.793,199.083 353.295 C 199.179 352.798,199.175 352.078,199.075 351.695 C 198.975 351.313,198.896 351.720,198.901 352.600 M198.501 359.400 C 198.505 360.280,198.587 360.593,198.683 360.095 C 198.779 359.598,198.775 358.878,198.675 358.495 C 198.575 358.113,198.496 358.520,198.501 359.400 M198.093 370.800 C 198.093 371.570,198.175 371.885,198.276 371.500 C 198.376 371.115,198.376 370.485,198.276 370.100 C 198.175 369.715,198.093 370.030,198.093 370.800 M197.737 381.000 C 197.739 382.760,197.809 383.430,197.893 382.489 C 197.978 381.549,197.977 380.109,197.891 379.289 C 197.805 378.470,197.736 379.240,197.737 381.000 " stroke="none" fill="#e8d8c5" fill-rule="evenodd"></path><path id="path4" d="M197.105 36.283 C 197.602 36.379,198.322 36.375,198.705 36.275 C 199.087 36.175,198.680 36.096,197.800 36.101 C 196.920 36.105,196.607 36.187,197.105 36.283 M202.162 37.900 C 202.581 38.395,203.211 38.786,203.562 38.768 C 204.104 38.742,204.109 38.703,203.600 38.516 C 203.270 38.395,202.640 38.004,202.200 37.648 C 201.407 37.006,201.406 37.008,202.162 37.900 M207.049 41.600 C 208.615 43.250,210.370 45.317,210.949 46.193 C 211.527 47.069,212.000 47.641,212.000 47.465 C 212.000 46.735,209.491 43.632,206.934 41.200 L 204.200 38.601 207.049 41.600 M187.014 44.635 C 186.641 45.204,186.405 45.738,186.489 45.822 C 186.573 45.907,186.958 45.441,187.344 44.788 C 188.206 43.328,187.948 43.209,187.014 44.635 M202.767 44.545 C 203.300 45.201,204.800 46.193,204.800 45.889 C 204.800 45.813,204.215 45.322,203.500 44.799 C 202.696 44.210,202.416 44.113,202.767 44.545 M194.464 45.867 C 194.429 46.564,194.296 47.464,194.170 47.867 C 193.953 48.559,193.965 48.560,194.394 47.891 C 194.645 47.502,194.777 46.602,194.689 45.891 L 194.528 44.600 194.464 45.867 M209.200 53.753 C 209.200 54.182,210.390 56.400,210.621 56.400 C 210.731 56.400,210.523 55.815,210.159 55.100 C 209.417 53.640,209.200 53.336,209.200 53.753 M184.093 56.000 C 184.093 56.770,184.175 57.085,184.276 56.700 C 184.376 56.315,184.376 55.685,184.276 55.300 C 184.175 54.915,184.093 55.230,184.093 56.000 M214.909 57.200 C 214.909 58.190,214.987 58.595,215.082 58.100 C 215.178 57.605,215.178 56.795,215.082 56.300 C 214.987 55.805,214.909 56.210,214.909 57.200 M211.309 59.600 C 211.309 60.590,211.387 60.995,211.482 60.500 C 211.578 60.005,211.578 59.195,211.482 58.700 C 211.387 58.205,211.309 58.610,211.309 59.600 M214.901 63.800 C 214.905 64.680,214.987 64.993,215.083 64.495 C 215.179 63.998,215.175 63.278,215.075 62.895 C 214.975 62.513,214.896 62.920,214.901 63.800 M194.764 63.933 C 194.980 64.336,195.471 64.921,195.855 65.233 C 196.287 65.584,196.190 65.304,195.601 64.500 C 194.551 63.065,194.157 62.798,194.764 63.933 M187.949 65.800 C 188.165 66.240,188.634 66.960,188.993 67.400 L 189.644 68.200 189.251 67.400 C 189.035 66.960,188.566 66.240,188.207 65.800 L 187.556 65.000 187.949 65.800 M197.201 66.937 C 197.751 67.562,198.560 68.259,199.000 68.486 C 199.842 68.920,199.818 68.893,197.601 66.997 L 196.203 65.800 197.201 66.937 M214.200 67.200 C 214.048 67.891,214.007 68.541,214.109 68.642 C 214.211 68.744,214.409 68.253,214.550 67.550 C 214.883 65.883,214.560 65.560,214.200 67.200 M193.032 72.775 C 193.490 73.339,194.255 74.319,194.732 74.954 C 195.209 75.589,195.600 75.944,195.600 75.743 C 195.600 75.542,194.835 74.562,193.900 73.564 C 192.965 72.566,192.574 72.211,193.032 72.775 M211.264 75.419 C 211.009 75.979,210.831 77.824,210.869 79.519 L 210.938 82.600 211.190 79.200 C 211.329 77.330,211.587 75.485,211.764 75.100 C 211.941 74.715,212.005 74.400,211.907 74.400 C 211.809 74.400,211.520 74.858,211.264 75.419 M197.346 81.800 C 197.347 84.000,197.414 84.849,197.495 83.687 C 197.576 82.524,197.576 80.724,197.493 79.687 C 197.411 78.649,197.345 79.600,197.346 81.800 M210.514 85.000 C 210.517 86.100,210.595 86.503,210.687 85.895 C 210.779 85.286,210.777 84.386,210.682 83.895 C 210.587 83.403,210.511 83.900,210.514 85.000 M265.461 92.300 C 265.358 92.465,266.214 92.540,267.361 92.467 C 270.654 92.258,270.422 89.601,270.305 126.108 C 270.247 144.047,270.335 158.640,270.500 158.538 C 271.261 158.068,270.837 93.358,270.069 92.662 C 269.322 91.986,265.826 91.711,265.461 92.300 M184.307 93.490 C 185.026 93.579,186.106 93.577,186.707 93.486 C 187.308 93.395,186.720 93.322,185.400 93.324 C 184.080 93.326,183.588 93.401,184.307 93.490 M193.500 93.489 C 194.215 93.578,195.385 93.578,196.100 93.489 C 196.815 93.401,196.230 93.328,194.800 93.328 C 193.370 93.328,192.785 93.401,193.500 93.489 M177.300 93.887 C 177.905 93.978,178.895 93.978,179.500 93.887 C 180.105 93.795,179.610 93.720,178.400 93.720 C 177.190 93.720,176.695 93.795,177.300 93.887 M171.505 94.683 C 172.002 94.779,172.722 94.775,173.105 94.675 C 173.487 94.575,173.080 94.496,172.200 94.501 C 171.320 94.505,171.007 94.587,171.505 94.683 M211.600 95.600 C 212.968 96.038,214.019 96.038,213.000 95.600 C 212.560 95.411,211.840 95.262,211.400 95.268 C 210.757 95.277,210.796 95.343,211.600 95.600 M258.006 102.194 C 257.263 102.961,256.732 103.650,256.827 103.725 C 256.922 103.800,257.606 103.173,258.346 102.331 C 260.029 100.418,259.812 100.331,258.006 102.194 M233.336 102.093 C 233.591 102.255,235.420 102.366,237.400 102.339 C 241.513 102.284,240.928 102.088,236.136 101.915 C 234.341 101.850,233.081 101.930,233.336 102.093 M241.457 102.800 C 241.708 103.130,242.002 103.760,242.111 104.200 C 242.297 104.960,242.310 104.957,242.354 104.149 C 242.379 103.681,242.085 103.051,241.700 102.749 C 241.091 102.272,241.060 102.278,241.457 102.800 M188.482 103.496 C 189.958 103.573,192.478 103.573,194.082 103.497 C 195.687 103.421,194.480 103.358,191.400 103.358 C 188.320 103.357,187.007 103.419,188.482 103.496 M142.500 104.846 C 141.137 105.719,140.695 106.306,141.900 105.643 C 142.818 105.139,144.256 104.027,144.000 104.019 C 143.890 104.016,143.215 104.388,142.500 104.846 M178.300 104.282 C 178.795 104.378,179.605 104.378,180.100 104.282 C 180.595 104.187,180.190 104.109,179.200 104.109 C 178.210 104.109,177.805 104.187,178.300 104.282 M169.200 106.200 C 168.430 106.497,168.070 106.739,168.400 106.739 C 168.730 106.739,169.630 106.497,170.400 106.200 C 171.170 105.903,171.530 105.661,171.200 105.661 C 170.870 105.661,169.970 105.903,169.200 106.200 M245.700 106.276 C 246.085 106.376,246.715 106.376,247.100 106.276 C 247.485 106.175,247.170 106.093,246.400 106.093 C 245.630 106.093,245.315 106.175,245.700 106.276 M250.400 106.400 C 249.608 106.654,249.567 106.720,250.200 106.720 C 250.640 106.720,251.450 106.576,252.000 106.400 C 252.792 106.146,252.833 106.080,252.200 106.080 C 251.760 106.080,250.950 106.224,250.400 106.400 M137.000 108.635 L 135.800 109.666 137.100 108.806 C 137.815 108.333,138.400 107.868,138.400 107.773 C 138.400 107.473,138.231 107.578,137.000 108.635 M161.900 109.429 C 160.405 110.240,160.496 110.578,162.000 109.800 C 162.660 109.459,163.200 109.094,163.200 108.990 C 163.200 108.732,163.157 108.747,161.900 109.429 M221.600 109.600 C 222.370 110.022,223.180 110.366,223.400 110.366 C 223.620 110.366,223.170 110.022,222.400 109.600 C 221.630 109.178,220.820 108.834,220.600 108.834 C 220.380 108.834,220.830 109.178,221.600 109.600 M224.000 110.541 C 224.000 110.808,227.690 112.843,227.863 112.671 C 227.940 112.593,227.103 112.039,226.002 111.440 C 224.901 110.840,224.000 110.436,224.000 110.541 M156.063 114.165 C 154.709 115.576,153.600 116.866,153.600 117.032 C 153.600 117.198,153.653 117.258,153.718 117.167 C 153.783 117.075,154.981 115.785,156.381 114.300 C 157.781 112.815,158.837 111.600,158.727 111.600 C 158.617 111.600,157.418 112.754,156.063 114.165 M209.342 116.200 C 209.341 118.180,209.408 119.040,209.492 118.112 C 209.576 117.184,209.577 115.564,209.495 114.512 C 209.412 113.460,209.343 114.220,209.342 116.200 M241.193 123.300 C 243.499 125.665,245.434 127.600,245.493 127.600 C 245.782 127.600,245.294 127.087,241.300 123.193 L 237.000 119.000 241.193 123.300 M123.952 121.100 C 122.420 122.789,120.164 126.000,120.509 126.000 C 120.594 126.000,121.263 125.145,121.995 124.100 C 122.728 123.055,123.782 121.705,124.338 121.100 C 124.894 120.495,125.260 120.000,125.150 120.000 C 125.040 120.000,124.501 120.495,123.952 121.100 M208.914 121.800 C 208.917 122.900,208.995 123.303,209.087 122.695 C 209.179 122.086,209.177 121.186,209.082 120.695 C 208.987 120.203,208.911 120.700,208.914 121.800 M150.656 123.684 C 150.521 124.188,150.439 126.220,150.474 128.200 L 150.536 131.800 150.789 127.400 C 151.059 122.707,151.042 122.243,150.656 123.684 M118.614 128.635 C 118.241 129.204,118.005 129.738,118.089 129.822 C 118.173 129.907,118.558 129.441,118.944 128.788 C 119.806 127.328,119.548 127.209,118.614 128.635 M248.383 131.500 C 249.126 132.435,249.806 133.200,249.894 133.200 C 250.177 133.200,248.463 130.949,247.735 130.364 C 247.348 130.054,247.640 130.565,248.383 131.500 M116.780 132.039 C 116.320 132.940,116.013 133.746,116.097 133.830 C 116.181 133.914,116.641 133.176,117.119 132.191 C 118.209 129.947,117.915 129.815,116.780 132.039 M196.800 143.480 C 196.690 150.785,196.738 156.623,196.906 156.455 C 197.074 156.286,197.164 150.310,197.105 143.174 L 196.999 130.200 196.800 143.480 M208.540 135.200 C 208.540 137.070,208.609 137.835,208.693 136.900 C 208.777 135.965,208.777 134.435,208.693 133.500 C 208.609 132.565,208.540 133.330,208.540 135.200 M250.800 134.800 C 251.270 135.460,251.744 136.000,251.854 136.000 C 251.964 136.000,251.670 135.460,251.200 134.800 C 250.730 134.140,250.256 133.600,250.146 133.600 C 250.036 133.600,250.330 134.140,250.800 134.800 M157.000 141.600 C 158.306 142.920,159.465 144.000,159.575 144.000 C 159.685 144.000,158.706 142.920,157.400 141.600 C 156.094 140.280,154.935 139.200,154.825 139.200 C 154.715 139.200,155.694 140.280,157.000 141.600 M208.124 141.400 C 208.126 142.720,208.201 143.212,208.290 142.493 C 208.379 141.774,208.377 140.694,208.286 140.093 C 208.195 139.492,208.122 140.080,208.124 141.400 M256.240 143.560 C 256.580 144.242,256.919 144.800,256.992 144.800 C 257.318 144.800,256.659 143.181,256.167 142.773 C 255.755 142.430,255.772 142.622,256.240 143.560 M111.429 146.229 C 111.281 146.815,111.238 147.372,111.332 147.466 C 111.427 147.560,111.624 147.158,111.771 146.571 C 111.919 145.985,111.962 145.428,111.868 145.334 C 111.773 145.240,111.576 145.642,111.429 146.229 M257.840 146.760 C 258.180 147.442,258.519 148.000,258.592 148.000 C 258.918 148.000,258.259 146.381,257.767 145.973 C 257.355 145.630,257.372 145.822,257.840 146.760 M110.629 149.829 C 110.481 150.415,110.438 150.972,110.532 151.066 C 110.627 151.160,110.824 150.758,110.971 150.171 C 111.119 149.585,111.162 149.028,111.068 148.934 C 110.973 148.840,110.776 149.242,110.629 149.829 M207.742 153.000 C 207.741 154.980,207.808 155.840,207.892 154.912 C 207.976 153.984,207.977 152.364,207.895 151.312 C 207.812 150.260,207.743 151.020,207.742 153.000 M207.246 157.667 C 207.181 158.612,207.613 159.600,208.092 159.600 C 208.367 159.600,208.367 159.438,208.092 159.100 C 207.869 158.825,207.598 158.240,207.489 157.800 C 207.344 157.210,207.281 157.175,207.246 157.667 M265.900 159.489 C 266.615 159.578,267.785 159.578,268.500 159.489 C 269.215 159.401,268.630 159.328,267.200 159.328 C 265.770 159.328,265.185 159.401,265.900 159.489 M208.833 159.744 C 208.925 159.823,209.540 160.008,210.200 160.156 C 211.076 160.352,211.238 160.315,210.800 160.018 C 210.260 159.653,208.432 159.398,208.833 159.744 M109.314 161.800 C 109.317 162.900,109.395 163.303,109.487 162.695 C 109.579 162.086,109.577 161.186,109.482 160.695 C 109.387 160.203,109.311 160.700,109.314 161.800 M217.233 162.144 C 217.325 162.223,217.940 162.408,218.600 162.556 C 219.476 162.752,219.638 162.715,219.200 162.418 C 218.660 162.053,216.832 161.798,217.233 162.144 M108.937 167.400 C 108.940 170.203,109.002 170.601,109.217 169.200 C 109.368 168.210,109.367 166.590,109.214 165.600 C 108.996 164.197,108.935 164.594,108.937 167.400 M109.301 172.600 C 109.305 173.480,109.387 173.793,109.483 173.295 C 109.579 172.798,109.575 172.078,109.475 171.695 C 109.375 171.313,109.296 171.720,109.301 172.600 M245.633 172.949 C 246.045 173.317,248.400 174.400,248.400 174.221 C 248.400 173.990,246.182 172.800,245.753 172.800 C 245.596 172.800,245.542 172.867,245.633 172.949 M251.200 175.735 C 251.200 176.006,254.074 177.659,254.246 177.487 C 254.326 177.408,253.673 176.939,252.796 176.446 C 251.918 175.952,251.200 175.633,251.200 175.735 M109.628 178.033 C 109.644 178.565,109.819 179.360,110.019 179.800 C 110.271 180.358,110.307 180.115,110.138 179.000 C 109.855 177.143,109.587 176.636,109.628 178.033 M110.406 182.633 C 110.409 183.055,110.595 183.670,110.818 184.000 C 111.115 184.438,111.152 184.276,110.956 183.400 C 110.627 181.929,110.398 181.610,110.406 182.633 M263.200 183.325 C 263.200 183.394,263.785 183.979,264.500 184.625 L 265.800 185.800 264.625 184.500 C 263.530 183.288,263.200 183.016,263.200 183.325 M266.000 185.725 C 266.000 185.794,266.585 186.379,267.300 187.025 L 268.600 188.200 267.425 186.900 C 266.330 185.688,266.000 185.416,266.000 185.725 M210.814 186.755 C 211.591 186.915,212.469 187.196,212.765 187.379 C 213.135 187.607,213.246 187.537,213.121 187.156 C 213.006 186.808,212.276 186.575,211.169 186.532 C 209.462 186.466,209.450 186.474,210.814 186.755 M151.957 189.234 C 151.863 190.326,151.966 191.067,152.212 191.067 C 152.444 191.067,152.562 190.441,152.483 189.633 C 152.260 187.365,152.126 187.263,151.957 189.234 M271.355 191.719 C 272.203 192.753,272.980 193.600,273.082 193.600 C 273.355 193.600,270.821 190.460,270.277 190.124 C 270.022 189.966,270.507 190.684,271.355 191.719 M134.500 191.476 C 134.885 191.576,135.515 191.576,135.900 191.476 C 136.285 191.375,135.970 191.293,135.200 191.293 C 134.430 191.293,134.115 191.375,134.500 191.476 M154.500 191.491 C 155.325 191.578,156.675 191.578,157.500 191.491 C 158.325 191.405,157.650 191.334,156.000 191.334 C 154.350 191.334,153.675 191.405,154.500 191.491 M169.100 191.598 C 169.936 191.947,170.000 192.223,170.000 195.467 C 170.000 197.892,170.128 198.832,170.417 198.543 C 170.660 198.300,170.786 196.737,170.717 194.795 L 170.600 191.465 169.400 191.344 C 168.319 191.235,168.289 191.260,169.100 191.598 M176.400 191.493 C 176.950 191.594,177.604 191.844,177.853 192.049 C 178.150 192.292,178.387 192.210,178.541 191.810 C 178.730 191.318,178.448 191.211,177.087 191.254 C 175.980 191.290,175.744 191.372,176.400 191.493 M188.893 192.000 C 189.168 192.440,189.510 192.800,189.653 192.800 C 189.796 192.800,190.026 193.250,190.164 193.800 C 190.302 194.350,190.596 194.800,190.818 194.800 C 191.039 194.800,190.939 194.255,190.594 193.588 C 189.909 192.263,190.078 191.617,191.124 191.568 C 191.561 191.548,191.619 191.464,191.287 191.331 C 191.004 191.217,190.480 191.366,190.122 191.662 C 189.611 192.084,189.434 192.092,189.302 191.700 C 189.209 191.425,188.967 191.200,188.763 191.200 C 188.560 191.200,188.618 191.560,188.893 192.000 M198.871 191.829 C 198.580 192.158,198.400 192.593,198.471 192.795 C 198.542 192.996,198.991 192.720,199.470 192.181 C 199.948 191.641,200.128 191.207,199.870 191.215 C 199.611 191.224,199.162 191.500,198.871 191.829 M230.300 191.481 C 231.235 191.572,232.000 191.816,232.000 192.023 C 232.000 192.230,232.180 192.400,232.400 192.400 C 232.620 192.400,232.800 192.162,232.800 191.871 C 232.800 191.502,232.167 191.339,230.700 191.329 C 228.854 191.317,228.806 191.336,230.300 191.481 M246.900 191.632 C 247.502 191.983,247.600 192.680,247.600 196.620 C 247.600 199.407,247.757 201.200,248.000 201.200 C 248.236 201.200,248.403 199.763,248.406 197.700 C 248.409 195.775,248.574 193.945,248.771 193.633 C 249.278 192.833,248.117 191.197,247.054 191.212 C 246.282 191.223,246.267 191.263,246.900 191.632 M251.700 191.476 C 252.085 191.576,252.715 191.576,253.100 191.476 C 253.485 191.375,253.170 191.293,252.400 191.293 C 251.630 191.293,251.315 191.375,251.700 191.476 M138.576 192.038 C 138.427 192.279,138.597 192.768,138.953 193.124 C 139.549 193.721,139.600 193.686,139.600 192.686 C 139.600 191.581,139.067 191.244,138.576 192.038 M151.554 192.144 C 151.782 192.419,152.022 194.344,152.087 196.422 L 152.206 200.200 152.403 195.977 C 152.584 192.096,152.541 191.749,151.870 191.699 C 151.329 191.659,151.247 191.775,151.554 192.144 M256.006 197.313 C 256.001 200.062,255.870 200.875,255.400 201.055 C 254.314 201.472,254.774 202.000,256.224 202.000 C 257.027 202.000,257.544 201.833,257.411 201.617 C 257.281 201.407,256.955 201.288,256.687 201.352 C 256.419 201.416,256.335 201.393,256.500 201.301 C 256.940 201.055,256.854 195.103,256.400 194.400 C 256.133 193.987,256.010 194.897,256.006 197.313 M191.038 195.538 C 190.881 195.792,190.901 196.000,191.082 196.000 C 191.263 196.000,191.732 196.741,192.125 197.647 C 192.517 198.553,192.932 199.201,193.047 199.086 C 193.161 198.972,192.820 198.023,192.289 196.978 C 191.703 195.824,191.211 195.258,191.038 195.538 M195.846 198.397 C 195.022 200.102,194.071 200.715,193.494 199.914 C 193.234 199.552,193.195 199.617,193.362 200.133 C 193.493 200.536,193.600 200.963,193.600 201.082 C 193.600 201.201,193.896 201.052,194.258 200.752 C 194.845 200.264,194.886 200.312,194.640 201.203 C 194.488 201.751,194.913 201.123,195.584 199.806 C 196.255 198.489,196.758 197.283,196.702 197.125 C 196.646 196.967,196.261 197.539,195.846 198.397 M139.654 198.820 C 139.625 199.381,139.465 200.012,139.300 200.223 C 139.135 200.433,139.241 200.402,139.535 200.154 C 139.829 199.906,139.988 199.274,139.889 198.751 C 139.711 197.810,139.708 197.810,139.654 198.820 M116.415 198.600 C 116.417 198.820,116.786 199.450,117.236 200.000 C 117.779 200.664,117.915 200.731,117.640 200.200 C 116.966 198.895,116.412 198.172,116.415 198.600 M177.774 199.327 C 177.467 199.990,177.473 200.365,177.796 200.667 C 178.121 200.971,178.255 200.718,178.283 199.743 C 178.328 198.151,178.321 198.145,177.774 199.327 M130.685 199.049 C 130.049 199.684,130.395 201.200,131.176 201.200 C 131.603 201.200,132.039 201.060,132.145 200.889 C 132.417 200.449,131.031 198.703,130.685 199.049 M277.000 200.400 C 277.341 201.060,277.711 201.600,277.821 201.600 C 277.931 201.600,277.741 201.060,277.400 200.400 C 277.059 199.740,276.689 199.200,276.579 199.200 C 276.469 199.200,276.659 199.740,277.000 200.400 M131.600 200.200 C 132.008 200.691,131.980 200.800,131.449 200.800 C 131.092 200.800,130.800 200.530,130.800 200.200 C 130.800 199.870,130.868 199.600,130.951 199.600 C 131.034 199.600,131.326 199.870,131.600 200.200 M210.925 201.200 C 207.144 201.597,208.196 202.000,213.013 202.000 C 215.778 202.000,217.601 201.853,217.380 201.647 C 216.865 201.169,213.463 200.933,210.925 201.200 M230.317 201.190 C 226.821 201.641,227.838 202.000,232.613 202.000 C 235.341 202.000,237.198 201.851,236.980 201.651 C 236.452 201.165,232.581 200.898,230.317 201.190 M134.800 201.600 C 134.346 201.893,134.522 201.989,135.524 201.994 C 136.305 201.997,136.746 201.836,136.600 201.600 C 136.289 201.097,135.578 201.097,134.800 201.600 M154.600 201.600 C 154.452 201.840,154.961 201.998,155.876 201.994 C 157.007 201.989,157.245 201.888,156.800 201.600 C 156.018 201.094,154.912 201.094,154.600 201.600 M172.400 201.600 C 172.400 201.820,172.771 202.000,173.224 202.000 C 173.677 202.000,173.936 201.820,173.800 201.600 C 173.664 201.380,173.293 201.200,172.976 201.200 C 172.659 201.200,172.400 201.380,172.400 201.600 M178.600 201.600 C 178.464 201.820,178.734 202.000,179.200 202.000 C 179.666 202.000,179.936 201.820,179.800 201.600 C 179.664 201.380,179.394 201.200,179.200 201.200 C 179.006 201.200,178.736 201.380,178.600 201.600 M246.551 201.680 C 246.442 201.856,247.184 202.000,248.200 202.000 C 249.216 202.000,249.947 201.838,249.824 201.640 C 249.553 201.200,246.826 201.234,246.551 201.680 M193.443 203.033 C 193.005 204.173,193.188 204.568,193.787 203.776 C 194.110 203.349,194.380 202.865,194.387 202.700 C 194.411 202.141,193.687 202.396,193.443 203.033 M189.100 206.282 C 189.595 206.378,190.405 206.378,190.900 206.282 C 191.395 206.187,190.990 206.109,190.000 206.109 C 189.010 206.109,188.605 206.187,189.100 206.282 M125.400 209.962 C 126.281 210.983,130.000 214.173,130.000 213.908 C 130.000 213.817,128.785 212.683,127.300 211.389 C 125.815 210.095,124.960 209.453,125.400 209.962 M281.444 211.800 C 281.773 213.271,282.002 213.590,281.994 212.567 C 281.991 212.145,281.805 211.530,281.582 211.200 C 281.285 210.762,281.248 210.924,281.444 211.800 M134.600 217.007 C 135.040 217.366,135.760 217.835,136.200 218.051 L 137.000 218.444 136.200 217.793 C 135.760 217.434,135.040 216.965,134.600 216.749 L 133.800 216.356 134.600 217.007 M283.301 220.200 C 283.305 221.080,283.387 221.393,283.483 220.895 C 283.579 220.398,283.575 219.678,283.475 219.295 C 283.375 218.913,283.296 219.320,283.301 220.200 M140.000 220.196 C 140.000 220.470,142.449 221.684,142.632 221.501 C 142.719 221.414,142.162 221.044,141.395 220.678 C 140.628 220.312,140.000 220.095,140.000 220.196 M143.200 221.796 C 143.200 222.070,145.649 223.284,145.832 223.101 C 145.919 223.014,145.362 222.644,144.595 222.278 C 143.828 221.912,143.200 221.695,143.200 221.796 M146.400 223.396 C 146.400 223.670,148.849 224.884,149.032 224.701 C 149.119 224.614,148.562 224.244,147.795 223.878 C 147.028 223.512,146.400 223.295,146.400 223.396 M284.165 233.600 C 284.165 237.450,284.225 239.025,284.298 237.100 C 284.371 235.175,284.371 232.025,284.298 230.100 C 284.225 228.175,284.165 229.750,284.165 233.600 M156.800 228.166 C 157.350 228.460,158.250 228.812,158.800 228.949 C 159.350 229.086,159.080 228.852,158.200 228.429 C 156.390 227.558,155.268 227.348,156.800 228.166 M109.280 230.080 C 108.913 230.447,108.800 239.591,108.800 268.800 C 108.800 307.586,108.816 308.027,110.180 307.988 C 110.411 307.981,110.285 307.792,109.900 307.568 C 109.241 307.184,109.200 304.912,109.200 268.800 C 109.200 232.688,109.241 230.416,109.900 230.032 C 110.285 229.808,110.411 229.619,110.180 229.612 C 109.949 229.605,109.544 229.816,109.280 230.080 M185.800 237.600 C 186.240 237.789,186.870 237.944,187.200 237.944 C 187.578 237.944,187.504 237.817,187.000 237.600 C 186.560 237.411,185.930 237.256,185.600 237.256 C 185.222 237.256,185.296 237.383,185.800 237.600 M193.600 239.194 C 193.930 239.411,194.635 239.591,195.167 239.594 C 196.451 239.602,196.125 239.375,194.400 239.058 C 193.415 238.877,193.178 238.918,193.600 239.194 M196.969 248.400 C 196.969 252.910,197.027 254.755,197.098 252.500 C 197.170 250.245,197.170 246.555,197.098 244.300 C 197.027 242.045,196.969 243.890,196.969 248.400 M203.731 246.200 C 203.733 247.740,203.805 248.321,203.892 247.491 C 203.979 246.661,203.977 245.401,203.889 244.691 C 203.800 243.981,203.729 244.660,203.731 246.200 M283.301 247.400 C 283.305 248.280,283.387 248.593,283.483 248.095 C 283.579 247.598,283.575 246.878,283.475 246.495 C 283.375 246.113,283.296 246.520,283.301 247.400 M121.634 246.600 C 121.634 246.820,121.978 247.630,122.400 248.400 C 122.822 249.170,123.166 249.620,123.166 249.400 C 123.166 249.180,122.822 248.370,122.400 247.600 C 121.978 246.830,121.634 246.380,121.634 246.600 M203.348 253.200 C 203.348 255.510,203.414 256.455,203.495 255.300 C 203.576 254.145,203.576 252.255,203.495 251.100 C 203.414 249.945,203.348 250.890,203.348 253.200 M232.000 252.182 C 232.000 252.290,232.585 252.676,233.300 253.040 C 234.015 253.403,235.410 254.322,236.400 255.083 L 238.200 256.466 236.600 254.996 C 235.120 253.636,232.000 251.727,232.000 252.182 M202.928 264.000 C 202.928 265.430,203.001 266.015,203.089 265.300 C 203.178 264.585,203.178 263.415,203.089 262.700 C 203.001 261.985,202.928 262.570,202.928 264.000 M243.342 270.200 C 243.341 272.180,243.408 273.040,243.492 272.112 C 243.576 271.184,243.577 269.564,243.495 268.512 C 243.412 267.460,243.343 268.220,243.342 270.200 M134.175 268.932 C 134.791 269.739,135.376 270.400,135.475 270.400 C 135.753 270.400,134.021 268.060,133.509 267.744 C 133.259 267.589,133.559 268.124,134.175 268.932 M202.553 273.400 C 202.553 276.040,202.618 277.068,202.697 275.684 C 202.775 274.301,202.774 272.141,202.695 270.884 C 202.616 269.628,202.552 270.760,202.553 273.400 M137.749 273.318 C 139.041 274.793,140.184 276.000,140.288 276.000 C 140.553 276.000,136.424 271.261,135.859 270.917 C 135.606 270.763,136.457 271.843,137.749 273.318 M142.800 278.600 C 143.546 279.370,144.247 280.000,144.357 280.000 C 144.467 280.000,143.946 279.370,143.200 278.600 C 142.454 277.830,141.753 277.200,141.643 277.200 C 141.533 277.200,142.054 277.830,142.800 278.600 M144.963 280.341 C 145.249 280.803,149.372 284.024,150.400 284.588 C 151.334 285.101,150.497 284.374,147.446 282.023 C 145.931 280.856,144.814 280.099,144.963 280.341 M202.131 282.600 C 202.133 284.140,202.205 284.721,202.292 283.891 C 202.379 283.061,202.377 281.801,202.289 281.091 C 202.200 280.381,202.129 281.060,202.131 282.600 M268.378 281.900 L 267.000 283.400 268.500 282.022 C 269.896 280.738,270.184 280.400,269.878 280.400 C 269.812 280.400,269.137 281.075,268.378 281.900 M265.578 285.100 L 264.200 286.600 265.700 285.222 C 267.096 283.938,267.384 283.600,267.078 283.600 C 267.012 283.600,266.337 284.275,265.578 285.100 M236.585 286.900 L 234.600 289.000 236.700 287.015 C 238.651 285.171,238.983 284.800,238.685 284.800 C 238.622 284.800,237.677 285.745,236.585 286.900 M152.400 285.779 C 152.400 285.889,152.940 286.259,153.600 286.600 C 154.260 286.941,154.800 287.131,154.800 287.021 C 154.800 286.911,154.260 286.541,153.600 286.200 C 152.940 285.859,152.400 285.669,152.400 285.779 M201.748 290.000 C 201.748 292.310,201.814 293.255,201.895 292.100 C 201.976 290.945,201.976 289.055,201.895 287.900 C 201.814 286.745,201.748 287.690,201.748 290.000 M155.200 287.379 C 155.200 287.489,155.740 287.859,156.400 288.200 C 157.060 288.541,157.600 288.731,157.600 288.621 C 157.600 288.511,157.060 288.141,156.400 287.800 C 155.740 287.459,155.200 287.269,155.200 287.379 M158.033 288.949 C 158.445 289.317,160.800 290.400,160.800 290.221 C 160.800 289.990,158.582 288.800,158.153 288.800 C 157.996 288.800,157.942 288.867,158.033 288.949 M136.400 292.392 C 137.170 292.557,138.160 292.819,138.600 292.974 C 139.124 293.158,139.055 293.044,138.400 292.642 C 137.850 292.304,136.860 292.043,136.200 292.060 C 135.021 292.091,135.024 292.097,136.400 292.392 M126.122 295.029 L 125.000 296.058 126.300 295.154 C 127.015 294.657,127.600 294.193,127.600 294.125 C 127.600 293.809,127.158 294.080,126.122 295.029 M173.200 294.621 C 174.190 294.933,175.270 295.179,175.600 295.167 C 175.930 295.156,175.390 294.891,174.400 294.579 C 173.410 294.267,172.330 294.021,172.000 294.033 C 171.670 294.044,172.210 294.309,173.200 294.621 M220.400 294.800 C 219.576 295.064,219.541 295.126,220.200 295.154 C 220.640 295.173,221.270 295.013,221.600 294.800 C 222.301 294.347,221.814 294.347,220.400 294.800 M178.900 295.876 C 179.285 295.976,179.915 295.976,180.300 295.876 C 180.685 295.775,180.370 295.693,179.600 295.693 C 178.830 295.693,178.515 295.775,178.900 295.876 M122.775 297.900 C 120.322 300.497,119.026 302.000,119.239 302.000 C 119.337 302.000,120.640 300.650,122.134 299.000 C 125.148 295.672,125.581 294.929,122.775 297.900 M183.900 296.682 C 184.395 296.778,185.205 296.778,185.700 296.682 C 186.195 296.587,185.790 296.509,184.800 296.509 C 183.810 296.509,183.405 296.587,183.900 296.682 M210.300 296.682 C 210.795 296.778,211.605 296.778,212.100 296.682 C 212.595 296.587,212.190 296.509,211.200 296.509 C 210.210 296.509,209.805 296.587,210.300 296.682 M188.705 297.083 C 189.202 297.179,189.922 297.175,190.305 297.075 C 190.687 296.975,190.280 296.896,189.400 296.901 C 188.520 296.905,188.207 296.987,188.705 297.083 M205.700 297.076 C 206.085 297.176,206.715 297.176,207.100 297.076 C 207.485 296.975,207.170 296.893,206.400 296.893 C 205.630 296.893,205.315 296.975,205.700 297.076 M194.100 297.476 C 194.485 297.576,195.115 297.576,195.500 297.476 C 195.885 297.375,195.570 297.293,194.800 297.293 C 194.030 297.293,193.715 297.375,194.100 297.476 M153.600 299.766 C 154.150 300.060,155.050 300.412,155.600 300.549 C 156.150 300.686,155.880 300.452,155.000 300.029 C 153.190 299.158,152.068 298.948,153.600 299.766 M231.800 303.600 C 231.296 303.817,231.222 303.944,231.600 303.944 C 231.930 303.944,232.560 303.789,233.000 303.600 C 233.504 303.383,233.578 303.256,233.200 303.256 C 232.870 303.256,232.240 303.411,231.800 303.600 M225.000 305.200 C 223.911 305.477,223.893 305.507,224.800 305.525 C 225.350 305.535,226.160 305.389,226.600 305.200 C 227.586 304.776,226.666 304.776,225.000 305.200 M115.701 307.040 C 115.206 307.604,115.011 307.996,115.267 307.911 C 115.698 307.767,117.080 305.991,116.749 306.007 C 116.667 306.011,116.195 306.476,115.701 307.040 M182.700 307.082 C 183.195 307.178,184.005 307.178,184.500 307.082 C 184.995 306.987,184.590 306.909,183.600 306.909 C 182.610 306.909,182.205 306.987,182.700 307.082 M213.705 307.087 C 214.314 307.179,215.214 307.177,215.705 307.082 C 216.197 306.987,215.700 306.911,214.600 306.914 C 213.500 306.917,213.097 306.995,213.705 307.087 M187.700 307.476 C 188.085 307.576,188.715 307.576,189.100 307.476 C 189.485 307.375,189.170 307.293,188.400 307.293 C 187.630 307.293,187.315 307.375,187.700 307.476 M208.900 307.476 C 209.285 307.576,209.915 307.576,210.300 307.476 C 210.685 307.375,210.370 307.293,209.600 307.293 C 208.830 307.293,208.515 307.375,208.900 307.476 M191.500 307.893 C 192.435 307.977,193.965 307.977,194.900 307.893 C 195.835 307.809,195.070 307.740,193.200 307.740 C 191.330 307.740,190.565 307.809,191.500 307.893 M200.969 308.135 C 200.856 308.430,200.826 310.095,200.902 311.835 L 201.039 315.000 201.120 311.516 L 201.200 308.032 204.500 307.898 L 207.800 307.763 204.487 307.681 C 202.031 307.621,201.122 307.738,200.969 308.135 M200.531 319.800 C 200.533 321.340,200.605 321.921,200.692 321.091 C 200.779 320.261,200.777 319.001,200.689 318.291 C 200.600 317.581,200.529 318.260,200.531 319.800 M200.151 327.200 C 200.151 329.730,200.216 330.765,200.296 329.500 C 200.375 328.235,200.375 326.165,200.296 324.900 C 200.216 323.635,200.151 324.670,200.151 327.200 M199.720 337.600 C 199.720 338.810,199.795 339.305,199.887 338.700 C 199.978 338.095,199.978 337.105,199.887 336.500 C 199.795 335.895,199.720 336.390,199.720 337.600 M199.337 349.800 C 199.339 351.560,199.409 352.230,199.493 351.289 C 199.578 350.349,199.577 348.909,199.491 348.089 C 199.405 347.270,199.336 348.040,199.337 349.800 M196.584 366.000 C 196.584 375.790,196.636 379.795,196.700 374.900 C 196.763 370.005,196.763 361.995,196.700 357.100 C 196.636 352.205,196.584 356.210,196.584 366.000 M198.928 356.400 C 198.928 357.830,199.001 358.415,199.089 357.700 C 199.178 356.985,199.178 355.815,199.089 355.100 C 199.001 354.385,198.928 354.970,198.928 356.400 M198.554 365.600 C 198.554 368.350,198.618 369.475,198.696 368.100 C 198.774 366.725,198.774 364.475,198.696 363.100 C 198.618 361.725,198.554 362.850,198.554 365.600 M198.114 373.800 C 198.117 374.900,198.195 375.303,198.287 374.695 C 198.379 374.086,198.377 373.186,198.282 372.695 C 198.187 372.203,198.111 372.700,198.114 373.800 " stroke="none" fill="#ece2d5" fill-rule="evenodd"></path></g></svg>